<?xml version="1.0" encoding="UTF-8" standalone="no"?>
<!DOCTYPE svg PUBLIC "-//W3C//DTD SVG 1.1//EN"
 "http://www.w3.org/Graphics/SVG/1.1/DTD/svg11.dtd">
<!-- Generated by graphviz version 2.43.0 (0)
 -->
<!-- Title: G Pages: 1 -->
<svg width="1592pt" height="796pt"
 viewBox="0.00 0.00 1591.69 796.13" xmlns="http://www.w3.org/2000/svg" xmlns:xlink="http://www.w3.org/1999/xlink">
<g id="graph0" class="graph" transform="scale(1 1) rotate(0) translate(4 792.13)">
<title>G</title><style>.edge>path:hover{stroke-width:8}</style>
<polygon fill="white" stroke="transparent" points="-4,4 -4,-792.13 1587.69,-792.13 1587.69,4 -4,4"/>
<!-- EOBRun_module -->
<g id="node1" class="node">
<title>EOBRun_module</title><style>.edge>path:hover{stroke-width:8}</style>
<ellipse fill="#b65353" stroke="black" cx="1126.56" cy="-322.07" rx="57.88" ry="18"/>
<text text-anchor="middle" x="1126.56" y="-319.57" font-family="Helvetica,sans-Serif" font-size="10.00" fill="#ffffff">EOBRun_module</text>
</g>
<!-- mlgw_bns_model -->
<g id="node10" class="node">
<title>mlgw_bns_model</title><style>.edge>path:hover{stroke-width:8}</style>
<ellipse fill="#358217" stroke="black" cx="1040.56" cy="-168.43" rx="58.73" ry="18"/>
<text text-anchor="middle" x="1040.56" y="-165.93" font-family="Helvetica,sans-Serif" font-size="10.00" fill="#ffffff">mlgw_bns.model</text>
</g>
<!-- EOBRun_module&#45;&gt;mlgw_bns_model -->
<g id="edge1" class="edge">
<title>EOBRun_module&#45;&gt;mlgw_bns_model</title><style>.edge>path:hover{stroke-width:8}</style>
<path fill="none" stroke="black" d="M1090.85,-307.86C1062,-294.86 1028.1,-272.87 1040.56,-244.64"/>
</g>
<!-- __main__ -->
<g id="node2" class="node">
<title>__main__</title><style>.edge>path:hover{stroke-width:8}</style>
<ellipse fill="#724d31" stroke="black" cx="1199.56" cy="-478.92" rx="36.49" ry="18"/>
<text text-anchor="middle" x="1199.56" y="-476.42" font-family="Helvetica,sans-Serif" font-size="10.00" fill="#ffffff">__main__</text>
</g>
<!-- pkg_resources -->
<g id="node20" class="node">
<title>pkg_resources</title><style>.edge>path:hover{stroke-width:8}</style>
<ellipse fill="#3185c4" stroke="black" cx="1199.56" cy="-400.49" rx="51.43" ry="18"/>
<text text-anchor="middle" x="1199.56" y="-397.99" font-family="Helvetica,sans-Serif" font-size="10.00" fill="#ffffff">pkg_resources</text>
</g>
<!-- __main__&#45;&gt;pkg_resources -->
<g id="edge2" class="edge">
<title>__main__&#45;&gt;pkg_resources</title><style>.edge>path:hover{stroke-width:8}</style>
<path fill="none" stroke="black" d="M1199.56,-460.58C1199.56,-451.13 1199.56,-439.23 1199.56,-428.59"/>
<polygon fill="#724d31" stroke="black" points="1203.06,-428.5 1199.56,-418.5 1196.06,-428.5 1203.06,-428.5"/>
</g>
<!-- h5py -->
<g id="node3" class="node">
<title>h5py</title><style>.edge>path:hover{stroke-width:8}</style>
<ellipse fill="#e6c919" stroke="black" cx="649.56" cy="-554.13" rx="27" ry="18"/>
<text text-anchor="middle" x="649.56" y="-551.63" font-family="Helvetica,sans-Serif" font-size="10.00" fill="#000000">h5py</text>
</g>
<!-- mlgw_bns_data_management -->
<g id="node6" class="node">
<title>mlgw_bns_data_management</title><style>.edge>path:hover{stroke-width:8}</style>
<ellipse fill="#48ef06" stroke="black" cx="683.56" cy="-400.49" rx="77.15" ry="21.43"/>
<text text-anchor="middle" x="683.56" y="-403.49" font-family="Helvetica,sans-Serif" font-size="10.00" fill="#000000">mlgw_bns.</text>
<text text-anchor="middle" x="683.56" y="-392.49" font-family="Helvetica,sans-Serif" font-size="10.00" fill="#000000">data_management</text>
</g>
<!-- h5py&#45;&gt;mlgw_bns_data_management -->
<g id="edge3" class="edge">
<title>h5py&#45;&gt;mlgw_bns_data_management</title><style>.edge>path:hover{stroke-width:8}</style>
<path fill="none" stroke="black" d="M674.56,-477.92C677.87,-462.95 680.02,-446.04 681.39,-431.95"/>
<polygon fill="#e6c919" stroke="black" points="684.89,-432.06 682.29,-421.79 677.92,-431.44 684.89,-432.06"/>
</g>
<!-- mlgw_bns_dataset_generation -->
<g id="node7" class="node">
<title>mlgw_bns_dataset_generation</title><style>.edge>path:hover{stroke-width:8}</style>
<ellipse fill="#43b814" stroke="black" cx="608.56" cy="-322.07" rx="78.48" ry="21.43"/>
<text text-anchor="middle" x="608.56" y="-325.07" font-family="Helvetica,sans-Serif" font-size="10.00" fill="#000000">mlgw_bns.</text>
<text text-anchor="middle" x="608.56" y="-314.07" font-family="Helvetica,sans-Serif" font-size="10.00" fill="#000000">dataset_generation</text>
</g>
<!-- h5py&#45;&gt;mlgw_bns_dataset_generation -->
<g id="edge4" class="edge">
<title>h5py&#45;&gt;mlgw_bns_dataset_generation</title><style>.edge>path:hover{stroke-width:8}</style>
<path fill="none" stroke="black" d="M656.41,-536.57C662.17,-521.93 670.16,-499.85 674.56,-479.92"/>
<path fill="none" stroke="black" d="M674.56,-477.92C686.34,-424.67 570.94,-455.49 578.56,-401.49"/>
</g>
<!-- mlgw_bns_downsampling_interpolation -->
<g id="node8" class="node">
<title>mlgw_bns_downsampling_interpolation</title><style>.edge>path:hover{stroke-width:8}</style>
<ellipse fill="#489b26" stroke="black" cx="576.56" cy="-243.64" rx="109.7" ry="21.43"/>
<text text-anchor="middle" x="576.56" y="-246.64" font-family="Helvetica,sans-Serif" font-size="10.00" fill="#ffffff">mlgw_bns.</text>
<text text-anchor="middle" x="576.56" y="-235.64" font-family="Helvetica,sans-Serif" font-size="10.00" fill="#ffffff">downsampling_interpolation</text>
</g>
<!-- h5py&#45;&gt;mlgw_bns_downsampling_interpolation -->
<g id="edge5" class="edge">
<title>h5py&#45;&gt;mlgw_bns_downsampling_interpolation</title><style>.edge>path:hover{stroke-width:8}</style>
<path fill="none" stroke="black" d="M635.12,-538.55C587.88,-490.48 442.17,-339.11 464.56,-323.07"/>
</g>
<!-- h5py&#45;&gt;mlgw_bns_model -->
<g id="edge6" class="edge">
<title>h5py&#45;&gt;mlgw_bns_model</title><style>.edge>path:hover{stroke-width:8}</style>
<path fill="none" stroke="black" d="M674.56,-477.92C685.15,-430.02 733.91,-455.41 769.56,-421.71 816.55,-377.29 796.98,-337.04 850.56,-300.85 923.55,-251.57 1005,-325.2 1040.56,-244.64"/>
<path fill="none" stroke="black" d="M1040.56,-242.64C1046.48,-228.21 1046.72,-210.79 1045.37,-196.56"/>
<polygon fill="#e6c919" stroke="black" points="1048.81,-195.89 1044.1,-186.41 1041.87,-196.76 1048.81,-195.89"/>
</g>
<!-- joblib -->
<g id="node4" class="node">
<title>joblib</title><style>.edge>path:hover{stroke-width:8}</style>
<ellipse fill="#a4ce3b" stroke="black" cx="1409.56" cy="-400.49" rx="27" ry="18"/>
<text text-anchor="middle" x="1409.56" y="-397.99" font-family="Helvetica,sans-Serif" font-size="10.00" fill="#000000">joblib</text>
</g>
<!-- mlgw_bns_hyperparameter_optimization -->
<g id="node9" class="node">
<title>mlgw_bns_hyperparameter_optimization</title><style>.edge>path:hover{stroke-width:8}</style>
<ellipse fill="#4c9130" stroke="black" cx="1183.56" cy="-93.21" rx="114.6" ry="21.43"/>
<text text-anchor="middle" x="1183.56" y="-96.21" font-family="Helvetica,sans-Serif" font-size="10.00" fill="#ffffff">mlgw_bns.</text>
<text text-anchor="middle" x="1183.56" y="-85.21" font-family="Helvetica,sans-Serif" font-size="10.00" fill="#ffffff">hyperparameter_optimization</text>
</g>
<!-- joblib&#45;&gt;mlgw_bns_hyperparameter_optimization -->
<g id="edge7" class="edge">
<title>joblib&#45;&gt;mlgw_bns_hyperparameter_optimization</title><style>.edge>path:hover{stroke-width:8}</style>
<path fill="none" stroke="black" d="M1550.56,-242.64C1531.08,-216.58 1558.78,-200.91 1550.56,-169.43"/>
</g>
<!-- joblib&#45;&gt;mlgw_bns_model -->
<g id="edge8" class="edge">
<title>joblib&#45;&gt;mlgw_bns_model</title><style>.edge>path:hover{stroke-width:8}</style>
<path fill="none" stroke="black" d="M1550.56,-321.07C1556.77,-287.67 1570.9,-271.84 1550.56,-244.64"/>
<path fill="none" stroke="black" d="M1550.56,-242.64C1524.36,-207.6 1240.32,-183.35 1107.86,-173.87"/>
<polygon fill="#a4ce3b" stroke="black" points="1108.04,-170.38 1097.82,-173.16 1107.55,-177.36 1108.04,-170.38"/>
</g>
<!-- mlgw_bns_neural_network -->
<g id="node12" class="node">
<title>mlgw_bns_neural_network</title><style>.edge>path:hover{stroke-width:8}</style>
<ellipse fill="#4ca328" stroke="black" cx="1419.56" cy="-243.64" rx="65.11" ry="21.43"/>
<text text-anchor="middle" x="1419.56" y="-246.64" font-family="Helvetica,sans-Serif" font-size="10.00" fill="#ffffff">mlgw_bns.</text>
<text text-anchor="middle" x="1419.56" y="-235.64" font-family="Helvetica,sans-Serif" font-size="10.00" fill="#ffffff">neural_network</text>
</g>
<!-- joblib&#45;&gt;mlgw_bns_neural_network -->
<g id="edge9" class="edge">
<title>joblib&#45;&gt;mlgw_bns_neural_network</title><style>.edge>path:hover{stroke-width:8}</style>
<path fill="none" stroke="black" d="M1430.81,-388.94C1437.16,-385.81 1444.13,-382.39 1450.56,-379.28 1496.47,-357.09 1541.25,-373.19 1550.56,-323.07"/>
<path fill="none" stroke="black" d="M1550.56,-321.07C1556.92,-286.87 1521.84,-267.62 1486.4,-256.99"/>
<polygon fill="#a4ce3b" stroke="black" points="1487,-253.52 1476.42,-254.22 1485.12,-260.27 1487,-253.52"/>
</g>
<!-- mlgw_bns -->
<g id="node5" class="node">
<title>mlgw_bns</title><style>.edge>path:hover{stroke-width:8}</style>
<ellipse fill="#61a446" stroke="black" cx="1040.56" cy="-18" rx="38.7" ry="18"/>
<text text-anchor="middle" x="1040.56" y="-15.5" font-family="Helvetica,sans-Serif" font-size="10.00" fill="#000000">mlgw_bns</text>
</g>
<!-- mlgw_bns_data_management&#45;&gt;mlgw_bns_dataset_generation -->
<g id="edge10" class="edge">
<title>mlgw_bns_data_management&#45;&gt;mlgw_bns_dataset_generation</title><style>.edge>path:hover{stroke-width:8}</style>
<path fill="none" stroke="black" d="M664.25,-379.81C655.33,-370.72 644.59,-359.78 634.94,-349.94"/>
<polygon fill="#48ef06" stroke="black" points="637.31,-347.37 627.81,-342.68 632.32,-352.27 637.31,-347.37"/>
</g>
<!-- mlgw_bns_data_management&#45;&gt;mlgw_bns_downsampling_interpolation -->
<g id="edge11" class="edge">
<title>mlgw_bns_data_management&#45;&gt;mlgw_bns_downsampling_interpolation</title><style>.edge>path:hover{stroke-width:8}</style>
<path fill="none" stroke="black" d="M693.18,-379.15C700.01,-363.98 708.93,-342.6 714.56,-323.07"/>
<path fill="none" stroke="black" d="M714.56,-321.07C723.16,-291.25 697.11,-272.85 665.4,-261.61"/>
<polygon fill="#48ef06" stroke="black" points="666.46,-258.28 655.87,-258.49 664.28,-264.93 666.46,-258.28"/>
</g>
<!-- mlgw_bns_data_management&#45;&gt;mlgw_bns_hyperparameter_optimization -->
<g id="edge12" class="edge">
<title>mlgw_bns_data_management&#45;&gt;mlgw_bns_hyperparameter_optimization</title><style>.edge>path:hover{stroke-width:8}</style>
<path fill="none" stroke="black" d="M752.1,-390.62C780.94,-386.97 814.87,-382.78 845.56,-379.28 922.81,-370.47 1125.57,-380.99 1193.56,-343.28 1214.45,-331.69 1209.02,-317.07 1226.56,-300.85 1273.07,-257.85 1287.67,-248.13 1345.56,-222.43 1431.57,-184.24 1574.33,-260.48 1550.56,-169.43"/>
<path fill="none" stroke="black" d="M1550.56,-167.43C1535.75,-120.07 1407.94,-103.16 1307.27,-97.22"/>
<polygon fill="#48ef06" stroke="black" points="1307.17,-93.71 1296.99,-96.65 1306.78,-100.7 1307.17,-93.71"/>
</g>
<!-- mlgw_bns_data_management&#45;&gt;mlgw_bns_model -->
<g id="edge13" class="edge">
<title>mlgw_bns_data_management&#45;&gt;mlgw_bns_model</title><style>.edge>path:hover{stroke-width:8}</style>
<path fill="none" stroke="black" d="M751.69,-390.54C843.49,-378.12 998.18,-355.77 1021.56,-343.28 1032.44,-337.47 1038.01,-335.13 1040.56,-323.07"/>
<path fill="none" stroke="black" d="M1040.56,-321.07C1047.6,-287.83 1026.85,-275.71 1040.56,-244.64"/>
</g>
<!-- mlgw_bns_model_validation -->
<g id="node11" class="node">
<title>mlgw_bns_model_validation</title><style>.edge>path:hover{stroke-width:8}</style>
<ellipse fill="#3c7326" stroke="black" cx="941.56" cy="-93.21" rx="71.34" ry="21.43"/>
<text text-anchor="middle" x="941.56" y="-96.21" font-family="Helvetica,sans-Serif" font-size="10.00" fill="#ffffff">mlgw_bns.</text>
<text text-anchor="middle" x="941.56" y="-85.21" font-family="Helvetica,sans-Serif" font-size="10.00" fill="#ffffff">model_validation</text>
</g>
<!-- mlgw_bns_data_management&#45;&gt;mlgw_bns_model_validation -->
<g id="edge14" class="edge">
<title>mlgw_bns_data_management&#45;&gt;mlgw_bns_model_validation</title><style>.edge>path:hover{stroke-width:8}</style>
<path fill="none" stroke="black" d="M714.56,-321.07C723.97,-288.43 727.41,-276.08 714.56,-244.64"/>
</g>
<!-- mlgw_bns_principal_component_analysis -->
<g id="node13" class="node">
<title>mlgw_bns_principal_component_analysis</title><style>.edge>path:hover{stroke-width:8}</style>
<ellipse fill="#5cb03a" stroke="black" cx="896.56" cy="-243.64" rx="115.93" ry="21.43"/>
<text text-anchor="middle" x="896.56" y="-246.64" font-family="Helvetica,sans-Serif" font-size="10.00" fill="#000000">mlgw_bns.</text>
<text text-anchor="middle" x="896.56" y="-235.64" font-family="Helvetica,sans-Serif" font-size="10.00" fill="#000000">principal_component_analysis</text>
</g>
<!-- mlgw_bns_data_management&#45;&gt;mlgw_bns_principal_component_analysis -->
<g id="edge15" class="edge">
<title>mlgw_bns_data_management&#45;&gt;mlgw_bns_principal_component_analysis</title><style>.edge>path:hover{stroke-width:8}</style>
<path fill="none" stroke="black" d="M714.56,-321.07C724.2,-287.65 754.79,-268.72 788.22,-258.03"/>
<polygon fill="#48ef06" stroke="black" points="789.57,-261.28 798.18,-255.11 787.6,-254.57 789.57,-261.28"/>
</g>
<!-- mlgw_bns_dataset_generation&#45;&gt;mlgw_bns_downsampling_interpolation -->
<g id="edge16" class="edge">
<title>mlgw_bns_dataset_generation&#45;&gt;mlgw_bns_downsampling_interpolation</title><style>.edge>path:hover{stroke-width:8}</style>
<path fill="none" stroke="black" d="M599.99,-300.59C596.59,-292.47 592.62,-282.98 588.92,-274.14"/>
<polygon fill="#43b814" stroke="black" points="592.14,-272.78 585.05,-264.91 585.69,-275.49 592.14,-272.78"/>
</g>
<!-- mlgw_bns_dataset_generation&#45;&gt;mlgw_bns_model -->
<g id="edge17" class="edge">
<title>mlgw_bns_dataset_generation&#45;&gt;mlgw_bns_model</title><style>.edge>path:hover{stroke-width:8}</style>
<path fill="none" stroke="black" d="M652.99,-304.53C676.5,-294.75 705.25,-281.09 728.56,-264.85 750.59,-249.51 747.83,-234.98 771.56,-222.43 834.34,-189.21 915.33,-176.71 971.96,-172.06"/>
<polygon fill="#43b814" stroke="black" points="972.54,-175.53 982.25,-171.28 972.01,-168.55 972.54,-175.53"/>
</g>
<!-- mlgw_bns_dataset_generation&#45;&gt;mlgw_bns_model_validation -->
<g id="edge18" class="edge">
<title>mlgw_bns_dataset_generation&#45;&gt;mlgw_bns_model_validation</title><style>.edge>path:hover{stroke-width:8}</style>
<path fill="none" stroke="black" d="M661.53,-306.32C693.75,-294.14 726.58,-274.04 714.56,-244.64"/>
<path fill="none" stroke="black" d="M714.56,-242.64C651.14,-87.47 213.85,-274.37 344.56,-169.43"/>
</g>
<!-- mlgw_bns_dataset_generation&#45;&gt;mlgw_bns_principal_component_analysis -->
<g id="edge19" class="edge">
<title>mlgw_bns_dataset_generation&#45;&gt;mlgw_bns_principal_component_analysis</title><style>.edge>path:hover{stroke-width:8}</style>
<path fill="none" stroke="black" d="M662.73,-306.69C708.1,-294.65 773.28,-277.36 823.3,-264.08"/>
<polygon fill="#43b814" stroke="black" points="824.33,-267.43 833.1,-261.48 822.53,-260.66 824.33,-267.43"/>
</g>
<!-- mlgw_bns_downsampling_interpolation&#45;&gt;mlgw_bns_model -->
<g id="edge20" class="edge">
<title>mlgw_bns_downsampling_interpolation&#45;&gt;mlgw_bns_model</title><style>.edge>path:hover{stroke-width:8}</style>
<path fill="none" stroke="black" d="M658.98,-229.63C750.85,-215.14 897.28,-192.03 979.47,-179.07"/>
<polygon fill="#489b26" stroke="black" points="980.08,-182.51 989.41,-177.5 978.98,-175.6 980.08,-182.51"/>
</g>
<!-- mlgw_bns_downsampling_interpolation&#45;&gt;mlgw_bns_model_validation -->
<g id="edge21" class="edge">
<title>mlgw_bns_downsampling_interpolation&#45;&gt;mlgw_bns_model_validation</title><style>.edge>path:hover{stroke-width:8}</style>
<path fill="none" stroke="black" d="M495.97,-229.14C418.81,-214.69 317.76,-190.94 344.56,-169.43"/>
</g>
<!-- mlgw_bns_hyperparameter_optimization&#45;&gt;mlgw_bns -->
<g id="edge22" class="edge">
<title>mlgw_bns_hyperparameter_optimization&#45;&gt;mlgw_bns</title><style>.edge>path:hover{stroke-width:8}</style>
<path fill="none" stroke="black" d="M1145.99,-72.98C1123.93,-61.68 1096.27,-47.52 1074.81,-36.53"/>
<polygon fill="#4c9130" stroke="black" points="1076.23,-33.33 1065.73,-31.89 1073.04,-39.56 1076.23,-33.33"/>
</g>
<!-- mlgw_bns_model&#45;&gt;mlgw_bns -->
<g id="edge23" class="edge">
<title>mlgw_bns_model&#45;&gt;mlgw_bns</title><style>.edge>path:hover{stroke-width:8}</style>
<path fill="none" stroke="black" d="M1040.56,-150.4C1040.56,-125.04 1040.56,-77.06 1040.56,-46.63"/>
<polygon fill="#358217" stroke="black" points="1044.06,-46.28 1040.56,-36.29 1037.06,-46.29 1044.06,-46.28"/>
</g>
<!-- mlgw_bns_model&#45;&gt;mlgw_bns_hyperparameter_optimization -->
<g id="edge24" class="edge">
<title>mlgw_bns_model&#45;&gt;mlgw_bns_hyperparameter_optimization</title><style>.edge>path:hover{stroke-width:8}</style>
<path fill="none" stroke="black" d="M1069.5,-152.61C1088.94,-142.66 1114.98,-129.33 1137.27,-117.92"/>
<polygon fill="#358217" stroke="black" points="1138.93,-120.99 1146.24,-113.32 1135.74,-114.76 1138.93,-120.99"/>
</g>
<!-- mlgw_bns_model&#45;&gt;mlgw_bns_model_validation -->
<g id="edge25" class="edge">
<title>mlgw_bns_model&#45;&gt;mlgw_bns_model_validation</title><style>.edge>path:hover{stroke-width:8}</style>
<path fill="none" stroke="black" d="M1019.08,-151.54C1006.34,-142.12 989.91,-129.97 975.45,-119.28"/>
<polygon fill="#358217" stroke="black" points="977.34,-116.32 967.22,-113.18 973.17,-121.94 977.34,-116.32"/>
</g>
<!-- mlgw_bns_model_validation&#45;&gt;mlgw_bns -->
<g id="edge26" class="edge">
<title>mlgw_bns_model_validation&#45;&gt;mlgw_bns</title><style>.edge>path:hover{stroke-width:8}</style>
<path fill="none" stroke="black" d="M967.06,-73.36C981.04,-63.02 998.4,-50.18 1012.74,-39.58"/>
<polygon fill="#3c7326" stroke="black" points="1014.82,-42.39 1020.78,-33.63 1010.66,-36.76 1014.82,-42.39"/>
</g>
<!-- mlgw_bns_neural_network&#45;&gt;mlgw_bns_hyperparameter_optimization -->
<g id="edge27" class="edge">
<title>mlgw_bns_neural_network&#45;&gt;mlgw_bns_hyperparameter_optimization</title><style>.edge>path:hover{stroke-width:8}</style>
<path fill="none" stroke="black" d="M1463.54,-227.86C1503.54,-213.04 1555.64,-189.57 1550.56,-169.43"/>
</g>
<!-- mlgw_bns_neural_network&#45;&gt;mlgw_bns_model -->
<g id="edge28" class="edge">
<title>mlgw_bns_neural_network&#45;&gt;mlgw_bns_model</title><style>.edge>path:hover{stroke-width:8}</style>
<path fill="none" stroke="black" d="M1364.86,-232.07C1294.08,-218.4 1171.29,-194.68 1098.82,-180.68"/>
<polygon fill="#4ca328" stroke="black" points="1099.42,-177.23 1088.94,-178.77 1098.1,-184.11 1099.42,-177.23"/>
</g>
<!-- mlgw_bns_principal_component_analysis&#45;&gt;mlgw_bns_model -->
<g id="edge29" class="edge">
<title>mlgw_bns_principal_component_analysis&#45;&gt;mlgw_bns_model</title><style>.edge>path:hover{stroke-width:8}</style>
<path fill="none" stroke="black" d="M934.4,-223.4C955.45,-212.7 981.57,-199.42 1002.64,-188.71"/>
<polygon fill="#5cb03a" stroke="black" points="1004.3,-191.79 1011.62,-184.14 1001.12,-185.55 1004.3,-191.79"/>
</g>
<!-- mlgw_bns_taylorf2 -->
<g id="node14" class="node">
<title>mlgw_bns_taylorf2</title><style>.edge>path:hover{stroke-width:8}</style>
<ellipse fill="#5bc431" stroke="black" cx="903.56" cy="-400.49" rx="48.58" ry="21.43"/>
<text text-anchor="middle" x="903.56" y="-403.49" font-family="Helvetica,sans-Serif" font-size="10.00" fill="#000000">mlgw_bns.</text>
<text text-anchor="middle" x="903.56" y="-392.49" font-family="Helvetica,sans-Serif" font-size="10.00" fill="#000000">taylorf2</text>
</g>
<!-- mlgw_bns_taylorf2&#45;&gt;mlgw_bns_dataset_generation -->
<g id="edge30" class="edge">
<title>mlgw_bns_taylorf2&#45;&gt;mlgw_bns_dataset_generation</title><style>.edge>path:hover{stroke-width:8}</style>
<path fill="none" stroke="black" d="M862.54,-388.87C813.53,-376.17 730.93,-354.77 673.28,-339.83"/>
<polygon fill="#5bc431" stroke="black" points="674.1,-336.43 663.54,-337.31 672.34,-343.2 674.1,-336.43"/>
</g>
<!-- mlgw_bns_taylorf2&#45;&gt;mlgw_bns_model -->
<g id="edge31" class="edge">
<title>mlgw_bns_taylorf2&#45;&gt;mlgw_bns_model</title><style>.edge>path:hover{stroke-width:8}</style>
<path fill="none" stroke="black" d="M883.11,-381.01C868.13,-365.16 852.38,-341.97 864.56,-323.07"/>
</g>
<!-- numba -->
<g id="node15" class="node">
<title>numba</title><style>.edge>path:hover{stroke-width:8}</style>
<ellipse fill="#31c446" stroke="black" cx="798.56" cy="-554.13" rx="29.37" ry="18"/>
<text text-anchor="middle" x="798.56" y="-551.63" font-family="Helvetica,sans-Serif" font-size="10.00" fill="#000000">numba</text>
</g>
<!-- numba&#45;&gt;mlgw_bns_model -->
<g id="edge32" class="edge">
<title>numba&#45;&gt;mlgw_bns_model</title><style>.edge>path:hover{stroke-width:8}</style>
<path fill="none" stroke="black" d="M804.52,-536.4C809.94,-521.46 818.33,-499.04 826.56,-479.92"/>
<path fill="none" stroke="black" d="M826.56,-477.92C854.57,-412.82 826.17,-382.63 864.56,-323.07"/>
<path fill="none" stroke="black" d="M864.56,-321.07C907.07,-247.14 1006.12,-322.66 1040.56,-244.64"/>
</g>
<!-- numba&#45;&gt;mlgw_bns_taylorf2 -->
<g id="edge33" class="edge">
<title>numba&#45;&gt;mlgw_bns_taylorf2</title><style>.edge>path:hover{stroke-width:8}</style>
<path fill="none" stroke="black" d="M826.56,-477.92C835.57,-457 853.24,-438.79 869.39,-425.4"/>
<polygon fill="#31c446" stroke="black" points="871.99,-427.81 877.64,-418.85 867.64,-422.32 871.99,-427.81"/>
</g>
<!-- numpy -->
<g id="node16" class="node">
<title>numpy</title><style>.edge>path:hover{stroke-width:8}</style>
<ellipse fill="#06ef8b" stroke="black" cx="559.56" cy="-698.13" rx="29.37" ry="18"/>
<text text-anchor="middle" x="559.56" y="-695.63" font-family="Helvetica,sans-Serif" font-size="10.00" fill="#000000">numpy</text>
</g>
<!-- numpy&#45;&gt;mlgw_bns_data_management -->
<g id="edge34" class="edge">
<title>numpy&#45;&gt;mlgw_bns_data_management</title><style>.edge>path:hover{stroke-width:8}</style>
<path fill="none" stroke="black" d="M712.56,-625.13C780.18,-592.32 730.08,-482.96 700.79,-430.31"/>
<polygon fill="#06ef8b" stroke="black" points="703.75,-428.43 695.77,-421.46 697.66,-431.89 703.75,-428.43"/>
</g>
<!-- numpy&#45;&gt;mlgw_bns_dataset_generation -->
<g id="edge35" class="edge">
<title>numpy&#45;&gt;mlgw_bns_dataset_generation</title><style>.edge>path:hover{stroke-width:8}</style>
<path fill="none" stroke="black" d="M578.56,-553.13C527.35,-509.32 569.14,-468.23 578.56,-401.49"/>
</g>
<!-- numpy&#45;&gt;mlgw_bns_downsampling_interpolation -->
<g id="edge36" class="edge">
<title>numpy&#45;&gt;mlgw_bns_downsampling_interpolation</title><style>.edge>path:hover{stroke-width:8}</style>
<path fill="none" stroke="black" d="M582.69,-686.7C612.7,-673.12 666.65,-648.6 712.56,-627.13"/>
<path fill="none" stroke="black" d="M712.56,-625.13C773.43,-596.67 631.23,-596.85 578.56,-555.13"/>
<path fill="none" stroke="black" d="M578.56,-553.13C533.84,-517.7 417.94,-355.95 464.56,-323.07"/>
</g>
<!-- numpy&#45;&gt;mlgw_bns_hyperparameter_optimization -->
<g id="edge37" class="edge">
<title>numpy&#45;&gt;mlgw_bns_hyperparameter_optimization</title><style>.edge>path:hover{stroke-width:8}</style>
<path fill="none" stroke="black" d="M1278.56,-553.13C1327.27,-497.34 1385.44,-553.72 1436.56,-500.13 1468.02,-467.16 1433.87,-435.18 1464.56,-401.49"/>
</g>
<!-- numpy&#45;&gt;mlgw_bns_model -->
<g id="edge38" class="edge">
<title>numpy&#45;&gt;mlgw_bns_model</title><style>.edge>path:hover{stroke-width:8}</style>
<path fill="none" stroke="black" d="M1040.56,-399.49C1020.64,-371.98 1033.53,-356.3 1040.56,-323.07"/>
</g>
<!-- numpy&#45;&gt;mlgw_bns_model_validation -->
<g id="edge39" class="edge">
<title>numpy&#45;&gt;mlgw_bns_model_validation</title><style>.edge>path:hover{stroke-width:8}</style>
<path fill="none" stroke="black" d="M538.84,-685.03C467.12,-642.67 231.93,-499.4 195.56,-421.71 157.18,-339.7 280.36,-343.3 325.56,-264.85 347.15,-227.38 310.84,-196.5 344.56,-169.43"/>
</g>
<!-- numpy&#45;&gt;mlgw_bns_neural_network -->
<g id="edge40" class="edge">
<title>numpy&#45;&gt;mlgw_bns_neural_network</title><style>.edge>path:hover{stroke-width:8}</style>
<path fill="none" stroke="black" d="M1278.56,-553.13C1327.05,-492.38 1275.15,-453.7 1297.56,-379.28 1305.67,-352.36 1307.56,-343.78 1326.56,-323.07"/>
</g>
<!-- numpy&#45;&gt;mlgw_bns_principal_component_analysis -->
<g id="edge41" class="edge">
<title>numpy&#45;&gt;mlgw_bns_principal_component_analysis</title><style>.edge>path:hover{stroke-width:8}</style>
<path fill="none" stroke="black" d="M1070.56,-477.92C1041.49,-455.87 1062.7,-430.5 1040.56,-401.49"/>
<path fill="none" stroke="black" d="M1040.56,-399.49C987.14,-329.48 903.26,-413.83 850.56,-343.28 834.32,-321.53 850.79,-293.13 868.37,-272.39"/>
<polygon fill="#06ef8b" stroke="black" points="871.06,-274.64 875.1,-264.85 865.83,-269.98 871.06,-274.64"/>
</g>
<!-- numpy&#45;&gt;mlgw_bns_taylorf2 -->
<g id="edge42" class="edge">
<title>numpy&#45;&gt;mlgw_bns_taylorf2</title><style>.edge>path:hover{stroke-width:8}</style>
<path fill="none" stroke="black" d="M712.56,-625.13C827.37,-571.45 1199.51,-654.19 1278.56,-555.13"/>
<path fill="none" stroke="black" d="M1278.56,-553.13C1339.69,-476.53 1148.65,-539.14 1070.56,-479.92"/>
<path fill="none" stroke="black" d="M1070.56,-477.92C1034.34,-450.45 986.65,-429.87 951.52,-417.02"/>
<polygon fill="#06ef8b" stroke="black" points="952.55,-413.68 941.96,-413.61 950.2,-420.27 952.55,-413.68"/>
</g>
<!-- scipy -->
<g id="node23" class="node">
<title>scipy</title><style>.edge>path:hover{stroke-width:8}</style>
<ellipse fill="#4505e5" stroke="black" cx="132.56" cy="-626.13" rx="27" ry="18"/>
<text text-anchor="middle" x="132.56" y="-623.63" font-family="Helvetica,sans-Serif" font-size="10.00" fill="#ffffff">scipy</text>
</g>
<!-- numpy&#45;&gt;scipy -->
<g id="edge43" class="edge">
<title>numpy&#45;&gt;scipy</title><style>.edge>path:hover{stroke-width:8}</style>
<path fill="none" stroke="black" d="M536.28,-686.6C529.99,-684.12 523.11,-681.74 516.56,-680.13 367.69,-643.62 322.12,-681.88 173.56,-644.13 170.17,-643.27 166.7,-642.18 163.27,-640.97"/>
<polygon fill="#06ef8b" stroke="black" points="164.46,-637.68 153.87,-637.33 161.93,-644.2 164.46,-637.68"/>
</g>
<!-- sklearn -->
<g id="node27" class="node">
<title>sklearn</title><style>.edge>path:hover{stroke-width:8}</style>
<ellipse fill="#9a31c4" stroke="black" cx="1099.56" cy="-400.49" rx="31.4" ry="18"/>
<text text-anchor="middle" x="1099.56" y="-397.99" font-family="Helvetica,sans-Serif" font-size="10.00" fill="#ffffff">sklearn</text>
</g>
<!-- numpy&#45;&gt;sklearn -->
<g id="edge44" class="edge">
<title>numpy&#45;&gt;sklearn</title><style>.edge>path:hover{stroke-width:8}</style>
<path fill="none" stroke="black" d="M1070.56,-477.92C1054.04,-465.39 1065.82,-442.27 1078.98,-424.73"/>
<polygon fill="#06ef8b" stroke="black" points="1081.94,-426.64 1085.44,-416.64 1076.46,-422.27 1081.94,-426.64"/>
</g>
<!-- numpy_random -->
<g id="node17" class="node">
<title>numpy_random</title><style>.edge>path:hover{stroke-width:8}</style>
<ellipse fill="#24d087" stroke="black" cx="530.56" cy="-770.13" rx="52.28" ry="18"/>
<text text-anchor="middle" x="530.56" y="-767.63" font-family="Helvetica,sans-Serif" font-size="10.00" fill="#000000">numpy.random</text>
</g>
<!-- numpy_random&#45;&gt;mlgw_bns_dataset_generation -->
<g id="edge45" class="edge">
<title>numpy_random&#45;&gt;mlgw_bns_dataset_generation</title><style>.edge>path:hover{stroke-width:8}</style>
<path fill="none" stroke="black" d="M502.56,-697.13C425.83,-620.38 515.4,-560.38 550.56,-457.71 559.61,-431.3 573.55,-428.95 578.56,-401.49"/>
<path fill="none" stroke="black" d="M578.56,-399.49C580.14,-383.24 586.31,-366.23 592.65,-352.39"/>
<polygon fill="#24d087" stroke="black" points="595.81,-353.89 597.01,-343.37 589.51,-350.85 595.81,-353.89"/>
</g>
<!-- numpy_random&#45;&gt;numpy -->
<g id="edge46" class="edge">
<title>numpy_random&#45;&gt;numpy</title><style>.edge>path:hover{stroke-width:8}</style>
<path fill="none" stroke="black" d="M537.58,-752.19C540.93,-744.1 545.01,-734.25 548.75,-725.24"/>
<polygon fill="#24d087" stroke="black" points="552.01,-726.5 552.61,-715.92 545.55,-723.82 552.01,-726.5"/>
</g>
<!-- numpy_random&#45;&gt;scipy -->
<g id="edge47" class="edge">
<title>numpy_random&#45;&gt;scipy</title><style>.edge>path:hover{stroke-width:8}</style>
<path fill="none" stroke="black" d="M527.69,-752.04C524.24,-736.41 517,-713.57 502.56,-699.13"/>
<path fill="none" stroke="black" d="M502.56,-697.13C397.85,-592.39 316.05,-684.55 173.56,-644.13 170.38,-643.23 167.1,-642.15 163.86,-640.98"/>
<polygon fill="#24d087" stroke="black" points="164.95,-637.64 154.36,-637.27 162.4,-644.16 164.95,-637.64"/>
</g>
<!-- optuna -->
<g id="node18" class="node">
<title>optuna</title><style>.edge>path:hover{stroke-width:8}</style>
<ellipse fill="#18dddd" stroke="black" cx="1335.56" cy="-400.49" rx="29.37" ry="18"/>
<text text-anchor="middle" x="1335.56" y="-397.99" font-family="Helvetica,sans-Serif" font-size="10.00" fill="#000000">optuna</text>
</g>
<!-- optuna&#45;&gt;mlgw_bns_hyperparameter_optimization -->
<g id="edge48" class="edge">
<title>optuna&#45;&gt;mlgw_bns_hyperparameter_optimization</title><style>.edge>path:hover{stroke-width:8}</style>
<path fill="none" stroke="black" d="M1356.51,-387.4C1361.96,-384.52 1367.9,-381.61 1373.56,-379.28 1425.06,-358.1 1453.69,-382.15 1493.56,-343.28 1497.2,-339.73 1551.81,-174.35 1550.56,-169.43"/>
</g>
<!-- optuna&#45;&gt;mlgw_bns_model -->
<g id="edge49" class="edge">
<title>optuna&#45;&gt;mlgw_bns_model</title><style>.edge>path:hover{stroke-width:8}</style>
<path fill="none" stroke="black" d="M1317.99,-385.79C1268.83,-347.45 1129.52,-238.81 1069.1,-191.69"/>
<polygon fill="#18dddd" stroke="black" points="1071.16,-188.85 1061.12,-185.46 1066.85,-194.37 1071.16,-188.85"/>
</g>
<!-- optuna&#45;&gt;mlgw_bns_neural_network -->
<g id="edge50" class="edge">
<title>optuna&#45;&gt;mlgw_bns_neural_network</title><style>.edge>path:hover{stroke-width:8}</style>
<path fill="none" stroke="black" d="M1327.17,-383.23C1319.61,-366.04 1311.75,-339.21 1326.56,-323.07"/>
</g>
<!-- optuna_visualization -->
<g id="node19" class="node">
<title>optuna_visualization</title><style>.edge>path:hover{stroke-width:8}</style>
<ellipse fill="#31c4c4" stroke="black" cx="1371.56" cy="-478.92" rx="55.72" ry="21.43"/>
<text text-anchor="middle" x="1371.56" y="-481.92" font-family="Helvetica,sans-Serif" font-size="10.00" fill="#000000">optuna.</text>
<text text-anchor="middle" x="1371.56" y="-470.92" font-family="Helvetica,sans-Serif" font-size="10.00" fill="#000000">visualization</text>
</g>
<!-- optuna_visualization&#45;&gt;mlgw_bns_hyperparameter_optimization -->
<g id="edge51" class="edge">
<title>optuna_visualization&#45;&gt;mlgw_bns_hyperparameter_optimization</title><style>.edge>path:hover{stroke-width:8}</style>
<path fill="none" stroke="black" d="M1397.4,-459.93C1412,-449.36 1430.34,-435.42 1445.56,-421.71 1454.73,-413.46 1455.97,-410.34 1464.56,-401.49"/>
<path fill="none" stroke="black" d="M1464.56,-399.49C1500.09,-362.93 1538.82,-387.29 1564.56,-343.28 1603.71,-276.37 1573.71,-243.41 1550.56,-169.43"/>
</g>
<!-- optuna_visualization&#45;&gt;optuna -->
<g id="edge52" class="edge">
<title>optuna_visualization&#45;&gt;optuna</title><style>.edge>path:hover{stroke-width:8}</style>
<path fill="none" stroke="black" d="M1362.1,-457.84C1357.68,-448.45 1352.37,-437.17 1347.66,-427.17"/>
<polygon fill="#31c4c4" stroke="black" points="1350.81,-425.64 1343.38,-418.09 1344.48,-428.63 1350.81,-425.64"/>
</g>
<!-- pkg_resources&#45;&gt;mlgw_bns_model -->
<g id="edge53" class="edge">
<title>pkg_resources&#45;&gt;mlgw_bns_model</title><style>.edge>path:hover{stroke-width:8}</style>
<path fill="none" stroke="black" d="M1164.21,-387.28C1128.81,-374.69 1077.14,-355.28 1059.56,-343.28 1049.38,-336.33 1038.01,-335.13 1040.56,-323.07"/>
</g>
<!-- pkg_resources&#45;&gt;mlgw_bns_neural_network -->
<g id="edge54" class="edge">
<title>pkg_resources&#45;&gt;mlgw_bns_neural_network</title><style>.edge>path:hover{stroke-width:8}</style>
<path fill="none" stroke="black" d="M1231.77,-386.42C1259.78,-373.71 1299.95,-352.08 1326.56,-323.07"/>
<path fill="none" stroke="black" d="M1326.56,-321.07C1334.9,-311.98 1336.4,-309.1 1345.56,-300.85 1357.86,-289.78 1372.18,-278.56 1384.92,-269.09"/>
<polygon fill="#3185c4" stroke="black" points="1387.05,-271.87 1393.04,-263.13 1382.9,-266.23 1387.05,-271.87"/>
</g>
<!-- pycbc -->
<g id="node21" class="node">
<title>pycbc</title><style>.edge>path:hover{stroke-width:8}</style>
<ellipse fill="#3349cc" stroke="black" cx="65.56" cy="-243.64" rx="27" ry="18"/>
<text text-anchor="middle" x="65.56" y="-241.14" font-family="Helvetica,sans-Serif" font-size="10.00" fill="#ffffff">pycbc</text>
</g>
<!-- pycbc&#45;&gt;mlgw_bns_model_validation -->
<g id="edge55" class="edge">
<title>pycbc&#45;&gt;mlgw_bns_model_validation</title><style>.edge>path:hover{stroke-width:8}</style>
<path fill="none" stroke="black" d="M84.48,-230.63C89.85,-227.62 95.8,-224.62 101.56,-222.43 204.89,-183.16 258.37,-238.63 344.56,-169.43"/>
</g>
<!-- pycbc_psd -->
<g id="node22" class="node">
<title>pycbc_psd</title><style>.edge>path:hover{stroke-width:8}</style>
<ellipse fill="#3d4eb8" stroke="black" cx="410.56" cy="-243.64" rx="38.03" ry="18"/>
<text text-anchor="middle" x="410.56" y="-241.14" font-family="Helvetica,sans-Serif" font-size="10.00" fill="#ffffff">pycbc.psd</text>
</g>
<!-- pycbc_psd&#45;&gt;mlgw_bns_model_validation -->
<g id="edge56" class="edge">
<title>pycbc_psd&#45;&gt;mlgw_bns_model_validation</title><style>.edge>path:hover{stroke-width:8}</style>
<path fill="none" stroke="black" d="M385.54,-229.57C358.43,-213.95 321.88,-187.64 344.56,-169.43"/>
</g>
<!-- scipy&#45;&gt;mlgw_bns_downsampling_interpolation -->
<g id="edge57" class="edge">
<title>scipy&#45;&gt;mlgw_bns_downsampling_interpolation</title><style>.edge>path:hover{stroke-width:8}</style>
<path fill="none" stroke="black" d="M132.56,-477.92C84.58,-296.13 409.9,-361.14 464.56,-323.07"/>
<path fill="none" stroke="black" d="M464.56,-321.07C489.19,-303.7 517.19,-284.59 539.03,-269.83"/>
<polygon fill="#4505e5" stroke="black" points="541.06,-272.68 547.39,-264.19 537.14,-266.88 541.06,-272.68"/>
</g>
<!-- scipy&#45;&gt;mlgw_bns_model_validation -->
<g id="edge58" class="edge">
<title>scipy&#45;&gt;mlgw_bns_model_validation</title><style>.edge>path:hover{stroke-width:8}</style>
<path fill="none" stroke="black" d="M135,-607.87C138.33,-580.38 142.82,-525.16 132.56,-479.92"/>
<path fill="none" stroke="black" d="M132.56,-477.92C123.5,-445.11 98.68,-450.51 80.56,-421.71 35.51,-350.08 -23.68,-322.02 10.56,-244.64"/>
<path fill="none" stroke="black" d="M10.56,-242.64C16.27,-231.71 18.69,-228.25 29.56,-222.43 154.73,-155.42 233.86,-258.3 344.56,-169.43"/>
<path fill="none" stroke="black" d="M344.56,-167.43C422.19,-105.1 715.37,-95 859.94,-93.91"/>
<polygon fill="#4505e5" stroke="black" points="860.11,-97.41 870.09,-93.84 860.07,-90.41 860.11,-97.41"/>
</g>
<!-- scipy&#45;&gt;numba -->
<g id="edge59" class="edge">
<title>scipy&#45;&gt;numba</title><style>.edge>path:hover{stroke-width:8}</style>
<path fill="none" stroke="black" d="M159.38,-623.08C239.46,-616.83 483.82,-596.96 685.56,-572.13 710.55,-569.06 738.53,-564.85 760.4,-561.4"/>
<polygon fill="#4505e5" stroke="black" points="760.97,-564.85 770.29,-559.82 759.87,-557.94 760.97,-564.85"/>
</g>
<!-- scipy_integrate -->
<g id="node24" class="node">
<title>scipy_integrate</title><style>.edge>path:hover{stroke-width:8}</style>
<ellipse fill="#6a4cb3" stroke="black" cx="153.56" cy="-243.64" rx="43.27" ry="21.43"/>
<text text-anchor="middle" x="153.56" y="-246.64" font-family="Helvetica,sans-Serif" font-size="10.00" fill="#ffffff">scipy.</text>
<text text-anchor="middle" x="153.56" y="-235.64" font-family="Helvetica,sans-Serif" font-size="10.00" fill="#ffffff">integrate</text>
</g>
<!-- scipy_integrate&#45;&gt;mlgw_bns_model_validation -->
<g id="edge60" class="edge">
<title>scipy_integrate&#45;&gt;mlgw_bns_model_validation</title><style>.edge>path:hover{stroke-width:8}</style>
<path fill="none" stroke="black" d="M186.56,-229.78C192.87,-227.33 199.42,-224.79 205.56,-222.43 267.26,-198.67 293.01,-210.82 344.56,-169.43"/>
</g>
<!-- scipy_interpolate -->
<g id="node25" class="node">
<title>scipy_interpolate</title><style>.edge>path:hover{stroke-width:8}</style>
<ellipse fill="#6a4cb3" stroke="black" cx="387.56" cy="-400.49" rx="49.49" ry="21.43"/>
<text text-anchor="middle" x="387.56" y="-403.49" font-family="Helvetica,sans-Serif" font-size="10.00" fill="#ffffff">scipy.</text>
<text text-anchor="middle" x="387.56" y="-392.49" font-family="Helvetica,sans-Serif" font-size="10.00" fill="#ffffff">interpolate</text>
</g>
<!-- scipy_interpolate&#45;&gt;mlgw_bns_downsampling_interpolation -->
<g id="edge61" class="edge">
<title>scipy_interpolate&#45;&gt;mlgw_bns_downsampling_interpolation</title><style>.edge>path:hover{stroke-width:8}</style>
<path fill="none" stroke="black" d="M403.84,-380.16C418.51,-363.56 441.29,-339.74 464.56,-323.07"/>
</g>
<!-- scipy_optimize -->
<g id="node26" class="node">
<title>scipy_optimize</title><style>.edge>path:hover{stroke-width:8}</style>
<ellipse fill="#6a4cb3" stroke="black" cx="265.56" cy="-243.64" rx="50.75" ry="18"/>
<text text-anchor="middle" x="265.56" y="-241.14" font-family="Helvetica,sans-Serif" font-size="10.00" fill="#ffffff">scipy.optimize</text>
</g>
<!-- scipy_optimize&#45;&gt;mlgw_bns_model_validation -->
<g id="edge62" class="edge">
<title>scipy_optimize&#45;&gt;mlgw_bns_model_validation</title><style>.edge>path:hover{stroke-width:8}</style>
<path fill="none" stroke="black" d="M281.6,-226.51C297.14,-211.18 321.67,-187.81 344.56,-169.43"/>
</g>
<!-- sklearn&#45;&gt;mlgw_bns_model -->
<g id="edge63" class="edge">
<title>sklearn&#45;&gt;mlgw_bns_model</title><style>.edge>path:hover{stroke-width:8}</style>
<path fill="none" stroke="black" d="M1078.91,-386.64C1059.75,-372.89 1034.98,-349.47 1040.56,-323.07"/>
</g>
<!-- sklearn&#45;&gt;mlgw_bns_neural_network -->
<g id="edge64" class="edge">
<title>sklearn&#45;&gt;mlgw_bns_neural_network</title><style>.edge>path:hover{stroke-width:8}</style>
<path fill="none" stroke="black" d="M1121.84,-387.86C1127.58,-384.97 1133.76,-381.94 1139.56,-379.28 1177.6,-361.83 1188.57,-360.82 1226.56,-343.28 1255.31,-330.01 1329.66,-291.56 1377.24,-266.77"/>
<polygon fill="#9a31c4" stroke="black" points="1379.13,-269.74 1386.37,-262.01 1375.89,-263.53 1379.13,-269.74"/>
</g>
<!-- sklearn_neural_network -->
<g id="node28" class="node">
<title>sklearn_neural_network</title><style>.edge>path:hover{stroke-width:8}</style>
<ellipse fill="#9a53b6" stroke="black" cx="1419.56" cy="-322.07" rx="65.11" ry="21.43"/>
<text text-anchor="middle" x="1419.56" y="-325.07" font-family="Helvetica,sans-Serif" font-size="10.00" fill="#ffffff">sklearn.</text>
<text text-anchor="middle" x="1419.56" y="-314.07" font-family="Helvetica,sans-Serif" font-size="10.00" fill="#ffffff">neural_network</text>
</g>
<!-- sklearn_neural_network&#45;&gt;mlgw_bns_neural_network -->
<g id="edge65" class="edge">
<title>sklearn_neural_network&#45;&gt;mlgw_bns_neural_network</title><style>.edge>path:hover{stroke-width:8}</style>
<path fill="none" stroke="black" d="M1419.56,-300.59C1419.56,-292.73 1419.56,-283.58 1419.56,-274.99"/>
<polygon fill="#9a53b6" stroke="black" points="1423.06,-274.91 1419.56,-264.91 1416.06,-274.91 1423.06,-274.91"/>
</g>
<!-- sklearn_preprocessing -->
<g id="node29" class="node">
<title>sklearn_preprocessing</title><style>.edge>path:hover{stroke-width:8}</style>
<ellipse fill="#9a53b6" stroke="black" cx="952.56" cy="-322.07" rx="60.21" ry="21.43"/>
<text text-anchor="middle" x="952.56" y="-325.07" font-family="Helvetica,sans-Serif" font-size="10.00" fill="#ffffff">sklearn.</text>
<text text-anchor="middle" x="952.56" y="-314.07" font-family="Helvetica,sans-Serif" font-size="10.00" fill="#ffffff">preprocessing</text>
</g>
<!-- sklearn_preprocessing&#45;&gt;mlgw_bns_model -->
<g id="edge66" class="edge">
<title>sklearn_preprocessing&#45;&gt;mlgw_bns_model</title><style>.edge>path:hover{stroke-width:8}</style>
<path fill="none" stroke="black" d="M983.79,-303.89C1004.24,-290.69 1029.2,-270.37 1040.56,-244.64"/>
</g>
<!-- sortedcontainers -->
<g id="node30" class="node">
<title>sortedcontainers</title><style>.edge>path:hover{stroke-width:8}</style>
<ellipse fill="#b653a8" stroke="black" cx="262.56" cy="-400.49" rx="57.88" ry="18"/>
<text text-anchor="middle" x="262.56" y="-397.99" font-family="Helvetica,sans-Serif" font-size="10.00" fill="#ffffff">sortedcontainers</text>
</g>
<!-- sortedcontainers&#45;&gt;mlgw_bns_downsampling_interpolation -->
<g id="edge67" class="edge">
<title>sortedcontainers&#45;&gt;mlgw_bns_downsampling_interpolation</title><style>.edge>path:hover{stroke-width:8}</style>
<path fill="none" stroke="black" d="M301.99,-387.26C352.81,-371.04 437.82,-342.23 464.56,-323.07"/>
</g>
<!-- tqdm -->
<g id="node31" class="node">
<title>tqdm</title><style>.edge>path:hover{stroke-width:8}</style>
<ellipse fill="#c2477c" stroke="black" cx="325.56" cy="-478.92" rx="27" ry="18"/>
<text text-anchor="middle" x="325.56" y="-476.42" font-family="Helvetica,sans-Serif" font-size="10.00" fill="#ffffff">tqdm</text>
</g>
<!-- tqdm&#45;&gt;mlgw_bns_dataset_generation -->
<g id="edge68" class="edge">
<title>tqdm&#45;&gt;mlgw_bns_dataset_generation</title><style>.edge>path:hover{stroke-width:8}</style>
<path fill="none" stroke="black" d="M347.58,-468.45C371.92,-457.79 412.09,-439.61 445.56,-421.71 489.55,-398.18 538.29,-368.14 570.9,-347.42"/>
<polygon fill="#c2477c" stroke="black" points="573.11,-350.17 579.66,-341.84 569.35,-344.26 573.11,-350.17"/>
</g>
<!-- tqdm&#45;&gt;mlgw_bns_model_validation -->
<g id="edge69" class="edge">
<title>tqdm&#45;&gt;mlgw_bns_model_validation</title><style>.edge>path:hover{stroke-width:8}</style>
<path fill="none" stroke="black" d="M301.3,-470.29C274.19,-461.13 229.65,-444.16 195.56,-421.71 171.8,-406.05 2.25,-271.85 10.56,-244.64"/>
</g>
</g>
</svg>
