<?xml version="1.0" encoding="UTF-8" standalone="no"?>
<!DOCTYPE svg PUBLIC "-//W3C//DTD SVG 1.1//EN"
 "http://www.w3.org/Graphics/SVG/1.1/DTD/svg11.dtd">
<!-- Generated by graphviz version 2.43.0 (0)
 -->
<!-- Title: G Pages: 1 -->
<svg width="1830pt" height="790pt"
 viewBox="0.00 0.00 1830.40 789.71" xmlns="http://www.w3.org/2000/svg" xmlns:xlink="http://www.w3.org/1999/xlink">
<g id="graph0" class="graph" transform="scale(1 1) rotate(0) translate(4 785.71)">
<title>G</title><style>.edge>path:hover{stroke-width:8}</style>
<polygon fill="white" stroke="transparent" points="-4,4 -4,-785.71 1826.4,-785.71 1826.4,4 -4,4"/>
<!-- EOBRun_module -->
<g id="node1" class="node">
<title>EOBRun_module</title><style>.edge>path:hover{stroke-width:8}</style>
<ellipse fill="#b65353" stroke="black" cx="752.78" cy="-322.07" rx="57.88" ry="18"/>
<text text-anchor="middle" x="752.78" y="-319.57" font-family="Helvetica,sans-Serif" font-size="10.00" fill="#ffffff">EOBRun_module</text>
</g>
<!-- mlgw_bns_model -->
<g id="node10" class="node">
<title>mlgw_bns_model</title><style>.edge>path:hover{stroke-width:8}</style>
<ellipse fill="#358217" stroke="black" cx="926.78" cy="-168.43" rx="58.73" ry="18"/>
<text text-anchor="middle" x="926.78" y="-165.93" font-family="Helvetica,sans-Serif" font-size="10.00" fill="#ffffff">mlgw_bns.model</text>
</g>
<!-- EOBRun_module&#45;&gt;mlgw_bns_model -->
<g id="edge1" class="edge">
<title>EOBRun_module&#45;&gt;mlgw_bns_model</title><style>.edge>path:hover{stroke-width:8}</style>
<path fill="none" stroke="black" d="M716.17,-308.15C670.26,-291.03 599.51,-261.06 616.78,-244.64"/>
</g>
<!-- __main__ -->
<g id="node2" class="node">
<title>__main__</title><style>.edge>path:hover{stroke-width:8}</style>
<ellipse fill="#795234" stroke="black" cx="592.78" cy="-400.49" rx="36.49" ry="18"/>
<text text-anchor="middle" x="592.78" y="-397.99" font-family="Helvetica,sans-Serif" font-size="10.00" fill="#ffffff">__main__</text>
</g>
<!-- pkg_resources -->
<g id="node19" class="node">
<title>pkg_resources</title><style>.edge>path:hover{stroke-width:8}</style>
<ellipse fill="#3d83b8" stroke="black" cx="879.78" cy="-322.07" rx="51.43" ry="18"/>
<text text-anchor="middle" x="879.78" y="-319.57" font-family="Helvetica,sans-Serif" font-size="10.00" fill="#ffffff">pkg_resources</text>
</g>
<!-- __main__&#45;&gt;pkg_resources -->
<g id="edge2" class="edge">
<title>__main__&#45;&gt;pkg_resources</title><style>.edge>path:hover{stroke-width:8}</style>
<path fill="none" stroke="black" d="M618.92,-387.87C626.51,-384.79 634.89,-381.65 642.78,-379.28 719.65,-356.14 742.25,-364.13 819.78,-343.28 825.02,-341.87 830.47,-340.25 835.85,-338.56"/>
<polygon fill="#795234" stroke="black" points="836.98,-341.87 845.42,-335.46 834.82,-335.21 836.98,-341.87"/>
</g>
<!-- h5py -->
<g id="node3" class="node">
<title>h5py</title><style>.edge>path:hover{stroke-width:8}</style>
<ellipse fill="#e6c919" stroke="black" cx="978.78" cy="-547.71" rx="27" ry="18"/>
<text text-anchor="middle" x="978.78" y="-545.21" font-family="Helvetica,sans-Serif" font-size="10.00" fill="#000000">h5py</text>
</g>
<!-- mlgw_bns_data_management -->
<g id="node6" class="node">
<title>mlgw_bns_data_management</title><style>.edge>path:hover{stroke-width:8}</style>
<ellipse fill="#48ef06" stroke="black" cx="761.78" cy="-400.49" rx="77.15" ry="21.43"/>
<text text-anchor="middle" x="761.78" y="-403.49" font-family="Helvetica,sans-Serif" font-size="10.00" fill="#000000">mlgw_bns.</text>
<text text-anchor="middle" x="761.78" y="-392.49" font-family="Helvetica,sans-Serif" font-size="10.00" fill="#000000">data_management</text>
</g>
<!-- h5py&#45;&gt;mlgw_bns_data_management -->
<g id="edge3" class="edge">
<title>h5py&#45;&gt;mlgw_bns_data_management</title><style>.edge>path:hover{stroke-width:8}</style>
<path fill="none" stroke="black" d="M980.79,-529.52C981.99,-515.21 982.62,-494.4 978.78,-476.71"/>
<path fill="none" stroke="black" d="M978.78,-474.71C972.37,-445.26 897.49,-425.02 837.46,-413.4"/>
<polygon fill="#e6c919" stroke="black" points="838.06,-409.96 827.58,-411.54 836.76,-416.84 838.06,-409.96"/>
</g>
<!-- mlgw_bns_dataset_generation -->
<g id="node7" class="node">
<title>mlgw_bns_dataset_generation</title><style>.edge>path:hover{stroke-width:8}</style>
<ellipse fill="#43b814" stroke="black" cx="1140.78" cy="-322.07" rx="78.48" ry="21.43"/>
<text text-anchor="middle" x="1140.78" y="-325.07" font-family="Helvetica,sans-Serif" font-size="10.00" fill="#000000">mlgw_bns.</text>
<text text-anchor="middle" x="1140.78" y="-314.07" font-family="Helvetica,sans-Serif" font-size="10.00" fill="#000000">dataset_generation</text>
</g>
<!-- h5py&#45;&gt;mlgw_bns_dataset_generation -->
<g id="edge4" class="edge">
<title>h5py&#45;&gt;mlgw_bns_dataset_generation</title><style>.edge>path:hover{stroke-width:8}</style>
<path fill="none" stroke="black" d="M978.78,-474.71C977.53,-468.98 1050.1,-405.03 1054.78,-401.49"/>
<path fill="none" stroke="black" d="M1054.78,-399.49C1064.61,-392.06 1064.82,-387.75 1073.78,-379.28 1084.7,-368.96 1097.19,-358.21 1108.4,-348.92"/>
<polygon fill="#e6c919" stroke="black" points="1110.8,-351.48 1116.3,-342.43 1106.35,-346.07 1110.8,-351.48"/>
</g>
<!-- mlgw_bns_downsampling_interpolation -->
<g id="node8" class="node">
<title>mlgw_bns_downsampling_interpolation</title><style>.edge>path:hover{stroke-width:8}</style>
<ellipse fill="#489b26" stroke="black" cx="1246.78" cy="-243.64" rx="109.7" ry="21.43"/>
<text text-anchor="middle" x="1246.78" y="-246.64" font-family="Helvetica,sans-Serif" font-size="10.00" fill="#ffffff">mlgw_bns.</text>
<text text-anchor="middle" x="1246.78" y="-235.64" font-family="Helvetica,sans-Serif" font-size="10.00" fill="#ffffff">downsampling_interpolation</text>
</g>
<!-- h5py&#45;&gt;mlgw_bns_downsampling_interpolation -->
<g id="edge5" class="edge">
<title>h5py&#45;&gt;mlgw_bns_downsampling_interpolation</title><style>.edge>path:hover{stroke-width:8}</style>
<path fill="none" stroke="black" d="M1054.78,-399.49C1064.61,-392.06 1063.09,-385.44 1073.78,-379.28 1134.67,-344.17 1166.88,-378.39 1227.78,-343.28 1238.46,-337.12 1248.44,-335.28 1246.78,-323.07"/>
<path fill="none" stroke="black" d="M1246.78,-321.07C1244.72,-305.98 1244.51,-289.06 1244.9,-274.99"/>
<polygon fill="#e6c919" stroke="black" points="1248.4,-274.98 1245.3,-264.85 1241.41,-274.71 1248.4,-274.98"/>
</g>
<!-- h5py&#45;&gt;mlgw_bns_model -->
<g id="edge6" class="edge">
<title>h5py&#45;&gt;mlgw_bns_model</title><style>.edge>path:hover{stroke-width:8}</style>
<path fill="none" stroke="black" d="M978.78,-474.71C970.99,-438.88 1008.19,-437.13 1016.78,-401.49"/>
<path fill="none" stroke="black" d="M1016.78,-399.49C1017.84,-395.06 1073.54,-248.26 1070.78,-244.64"/>
<path fill="none" stroke="black" d="M1070.78,-242.64C1063.01,-233.06 1061.89,-229.48 1051.78,-222.43 1028.92,-206.49 1000.51,-193.97 976.56,-185.11"/>
<polygon fill="#e6c919" stroke="black" points="977.54,-181.74 966.94,-181.66 975.17,-188.33 977.54,-181.74"/>
</g>
<!-- joblib -->
<g id="node4" class="node">
<title>joblib</title><style>.edge>path:hover{stroke-width:8}</style>
<ellipse fill="#9fc247" stroke="black" cx="325.78" cy="-322.07" rx="27" ry="18"/>
<text text-anchor="middle" x="325.78" y="-319.57" font-family="Helvetica,sans-Serif" font-size="10.00" fill="#000000">joblib</text>
</g>
<!-- mlgw_bns_hyperparameter_optimization -->
<g id="node9" class="node">
<title>mlgw_bns_hyperparameter_optimization</title><style>.edge>path:hover{stroke-width:8}</style>
<ellipse fill="#488a2e" stroke="black" cx="783.78" cy="-93.21" rx="114.6" ry="21.43"/>
<text text-anchor="middle" x="783.78" y="-96.21" font-family="Helvetica,sans-Serif" font-size="10.00" fill="#ffffff">mlgw_bns.</text>
<text text-anchor="middle" x="783.78" y="-85.21" font-family="Helvetica,sans-Serif" font-size="10.00" fill="#ffffff">hyperparameter_optimization</text>
</g>
<!-- joblib&#45;&gt;mlgw_bns_hyperparameter_optimization -->
<g id="edge7" class="edge">
<title>joblib&#45;&gt;mlgw_bns_hyperparameter_optimization</title><style>.edge>path:hover{stroke-width:8}</style>
<path fill="none" stroke="black" d="M345.75,-309.67C372.93,-294.1 418.61,-267.79 421.78,-264.85 429.79,-257.42 432.49,-255.06 435.78,-244.64"/>
<path fill="none" stroke="black" d="M435.78,-242.64C445.57,-211.61 405.83,-182.16 435.78,-169.43"/>
</g>
<!-- joblib&#45;&gt;mlgw_bns_model -->
<g id="edge8" class="edge">
<title>joblib&#45;&gt;mlgw_bns_model</title><style>.edge>path:hover{stroke-width:8}</style>
<path fill="none" stroke="black" d="M344.7,-309.07C350.06,-306.05 356.02,-303.05 361.78,-300.85 470.21,-259.5 532.68,-324.62 616.78,-244.64"/>
</g>
<!-- mlgw_bns -->
<g id="node5" class="node">
<title>mlgw_bns</title><style>.edge>path:hover{stroke-width:8}</style>
<ellipse fill="#61a446" stroke="black" cx="926.78" cy="-18" rx="38.7" ry="18"/>
<text text-anchor="middle" x="926.78" y="-15.5" font-family="Helvetica,sans-Serif" font-size="10.00" fill="#000000">mlgw_bns</text>
</g>
<!-- mlgw_bns_data_management&#45;&gt;mlgw_bns_dataset_generation -->
<g id="edge9" class="edge">
<title>mlgw_bns_data_management&#45;&gt;mlgw_bns_dataset_generation</title><style>.edge>path:hover{stroke-width:8}</style>
<path fill="none" stroke="black" d="M822.25,-387.3C889.61,-373.71 998.41,-351.78 1069.76,-337.39"/>
<polygon fill="#48ef06" stroke="black" points="1070.47,-340.81 1079.58,-335.41 1069.08,-333.95 1070.47,-340.81"/>
</g>
<!-- mlgw_bns_data_management&#45;&gt;mlgw_bns_downsampling_interpolation -->
<g id="edge10" class="edge">
<title>mlgw_bns_data_management&#45;&gt;mlgw_bns_downsampling_interpolation</title><style>.edge>path:hover{stroke-width:8}</style>
<path fill="none" stroke="black" d="M996.78,-321.07C1012.05,-292.27 1088.87,-271.73 1153.38,-259.24"/>
<polygon fill="#48ef06" stroke="black" points="1154.03,-262.68 1163.21,-257.39 1152.73,-255.81 1154.03,-262.68"/>
</g>
<!-- mlgw_bns_data_management&#45;&gt;mlgw_bns_hyperparameter_optimization -->
<g id="edge11" class="edge">
<title>mlgw_bns_data_management&#45;&gt;mlgw_bns_hyperparameter_optimization</title><style>.edge>path:hover{stroke-width:8}</style>
<path fill="none" stroke="black" d="M698.16,-388.39C678.81,-385.21 657.45,-381.9 637.78,-379.28 560.71,-369.02 357.91,-380.72 289.78,-343.28 283.65,-339.92 206.51,-249.23 211.78,-244.64"/>
</g>
<!-- mlgw_bns_data_management&#45;&gt;mlgw_bns_model -->
<g id="edge12" class="edge">
<title>mlgw_bns_data_management&#45;&gt;mlgw_bns_model</title><style>.edge>path:hover{stroke-width:8}</style>
<path fill="none" stroke="black" d="M826.09,-388.74C889.88,-376.42 980.42,-353.91 996.78,-323.07"/>
<path fill="none" stroke="black" d="M996.78,-321.07C1037.13,-244.97 554.36,-304 616.78,-244.64"/>
</g>
<!-- mlgw_bns_model_validation -->
<g id="node11" class="node">
<title>mlgw_bns_model_validation</title><style>.edge>path:hover{stroke-width:8}</style>
<ellipse fill="#3c7326" stroke="black" cx="1025.78" cy="-93.21" rx="71.34" ry="21.43"/>
<text text-anchor="middle" x="1025.78" y="-96.21" font-family="Helvetica,sans-Serif" font-size="10.00" fill="#ffffff">mlgw_bns.</text>
<text text-anchor="middle" x="1025.78" y="-85.21" font-family="Helvetica,sans-Serif" font-size="10.00" fill="#ffffff">model_validation</text>
</g>
<!-- mlgw_bns_data_management&#45;&gt;mlgw_bns_model_validation -->
<g id="edge13" class="edge">
<title>mlgw_bns_data_management&#45;&gt;mlgw_bns_model_validation</title><style>.edge>path:hover{stroke-width:8}</style>
<path fill="none" stroke="black" d="M996.78,-321.07C1018.52,-280.06 1047.39,-292.35 1084.78,-264.85 1096.01,-256.59 1097.72,-253.15 1108.78,-244.64"/>
<path fill="none" stroke="black" d="M1108.78,-242.64C1118.55,-235.12 1116.89,-228.21 1127.78,-222.43 1258.59,-152.98 1566.66,-268.73 1456.78,-169.43"/>
<path fill="none" stroke="black" d="M1456.78,-167.43C1406.47,-121.96 1216.44,-104.3 1106.22,-97.77"/>
<polygon fill="#48ef06" stroke="black" points="1106.33,-94.27 1096.14,-97.19 1105.92,-101.26 1106.33,-94.27"/>
</g>
<!-- mlgw_bns_principal_component_analysis -->
<g id="node12" class="node">
<title>mlgw_bns_principal_component_analysis</title><style>.edge>path:hover{stroke-width:8}</style>
<ellipse fill="#5cb03a" stroke="black" cx="926.78" cy="-243.64" rx="115.93" ry="21.43"/>
<text text-anchor="middle" x="926.78" y="-246.64" font-family="Helvetica,sans-Serif" font-size="10.00" fill="#000000">mlgw_bns.</text>
<text text-anchor="middle" x="926.78" y="-235.64" font-family="Helvetica,sans-Serif" font-size="10.00" fill="#000000">principal_component_analysis</text>
</g>
<!-- mlgw_bns_data_management&#45;&gt;mlgw_bns_principal_component_analysis -->
<g id="edge14" class="edge">
<title>mlgw_bns_data_management&#45;&gt;mlgw_bns_principal_component_analysis</title><style>.edge>path:hover{stroke-width:8}</style>
<path fill="none" stroke="black" d="M996.78,-321.07C1007.1,-301.59 991.52,-283.26 972.45,-269.43"/>
<polygon fill="#48ef06" stroke="black" points="974.38,-266.5 964.14,-263.79 970.45,-272.3 974.38,-266.5"/>
</g>
<!-- mlgw_bns_dataset_generation&#45;&gt;mlgw_bns_downsampling_interpolation -->
<g id="edge15" class="edge">
<title>mlgw_bns_dataset_generation&#45;&gt;mlgw_bns_downsampling_interpolation</title><style>.edge>path:hover{stroke-width:8}</style>
<path fill="none" stroke="black" d="M1167.25,-301.98C1180.58,-292.37 1196.92,-280.58 1211.32,-270.2"/>
<polygon fill="#43b814" stroke="black" points="1213.47,-272.97 1219.53,-264.28 1209.37,-267.29 1213.47,-272.97"/>
</g>
<!-- mlgw_bns_dataset_generation&#45;&gt;mlgw_bns_model -->
<g id="edge16" class="edge">
<title>mlgw_bns_dataset_generation&#45;&gt;mlgw_bns_model</title><style>.edge>path:hover{stroke-width:8}</style>
<path fill="none" stroke="black" d="M1121.02,-301.5C1106.39,-286.55 1086.38,-265.1 1070.78,-244.64"/>
</g>
<!-- mlgw_bns_dataset_generation&#45;&gt;mlgw_bns_model_validation -->
<g id="edge17" class="edge">
<title>mlgw_bns_dataset_generation&#45;&gt;mlgw_bns_model_validation</title><style>.edge>path:hover{stroke-width:8}</style>
<path fill="none" stroke="black" d="M1121.8,-301.46C1106.77,-283.71 1090.99,-258.33 1108.78,-244.64"/>
</g>
<!-- mlgw_bns_dataset_generation&#45;&gt;mlgw_bns_principal_component_analysis -->
<g id="edge18" class="edge">
<title>mlgw_bns_dataset_generation&#45;&gt;mlgw_bns_principal_component_analysis</title><style>.edge>path:hover{stroke-width:8}</style>
<path fill="none" stroke="black" d="M1095.13,-304.76C1063.6,-293.5 1021.34,-278.41 987.04,-266.16"/>
<polygon fill="#43b814" stroke="black" points="988.19,-262.86 977.6,-262.79 985.84,-269.45 988.19,-262.86"/>
</g>
<!-- mlgw_bns_downsampling_interpolation&#45;&gt;mlgw_bns_model -->
<g id="edge19" class="edge">
<title>mlgw_bns_downsampling_interpolation&#45;&gt;mlgw_bns_model</title><style>.edge>path:hover{stroke-width:8}</style>
<path fill="none" stroke="black" d="M1178.52,-227.02C1120.11,-213.66 1037.07,-194.66 982.57,-182.19"/>
<polygon fill="#489b26" stroke="black" points="983.27,-178.76 972.74,-179.94 981.71,-185.59 983.27,-178.76"/>
</g>
<!-- mlgw_bns_downsampling_interpolation&#45;&gt;mlgw_bns_model_validation -->
<g id="edge20" class="edge">
<title>mlgw_bns_downsampling_interpolation&#45;&gt;mlgw_bns_model_validation</title><style>.edge>path:hover{stroke-width:8}</style>
<path fill="none" stroke="black" d="M1322.57,-228.28C1391.66,-213.63 1479.73,-190.17 1456.78,-169.43"/>
</g>
<!-- mlgw_bns_hyperparameter_optimization&#45;&gt;mlgw_bns -->
<g id="edge21" class="edge">
<title>mlgw_bns_hyperparameter_optimization&#45;&gt;mlgw_bns</title><style>.edge>path:hover{stroke-width:8}</style>
<path fill="none" stroke="black" d="M821.35,-72.98C843.4,-61.68 871.07,-47.52 892.53,-36.53"/>
<polygon fill="#488a2e" stroke="black" points="894.3,-39.56 901.61,-31.89 891.11,-33.33 894.3,-39.56"/>
</g>
<!-- mlgw_bns_model&#45;&gt;mlgw_bns -->
<g id="edge22" class="edge">
<title>mlgw_bns_model&#45;&gt;mlgw_bns</title><style>.edge>path:hover{stroke-width:8}</style>
<path fill="none" stroke="black" d="M926.78,-150.4C926.78,-125.04 926.78,-77.06 926.78,-46.63"/>
<polygon fill="#358217" stroke="black" points="930.28,-46.28 926.78,-36.29 923.28,-46.29 930.28,-46.28"/>
</g>
<!-- mlgw_bns_model&#45;&gt;mlgw_bns_hyperparameter_optimization -->
<g id="edge23" class="edge">
<title>mlgw_bns_model&#45;&gt;mlgw_bns_hyperparameter_optimization</title><style>.edge>path:hover{stroke-width:8}</style>
<path fill="none" stroke="black" d="M897.84,-152.61C878.4,-142.66 852.36,-129.33 830.07,-117.92"/>
<polygon fill="#358217" stroke="black" points="831.6,-114.76 821.1,-113.32 828.41,-120.99 831.6,-114.76"/>
</g>
<!-- mlgw_bns_model&#45;&gt;mlgw_bns_model_validation -->
<g id="edge24" class="edge">
<title>mlgw_bns_model&#45;&gt;mlgw_bns_model_validation</title><style>.edge>path:hover{stroke-width:8}</style>
<path fill="none" stroke="black" d="M948.26,-151.54C961,-142.12 977.43,-129.97 991.88,-119.28"/>
<polygon fill="#358217" stroke="black" points="994.16,-121.94 1000.12,-113.18 990,-116.32 994.16,-121.94"/>
</g>
<!-- mlgw_bns_model_validation&#45;&gt;mlgw_bns -->
<g id="edge25" class="edge">
<title>mlgw_bns_model_validation&#45;&gt;mlgw_bns</title><style>.edge>path:hover{stroke-width:8}</style>
<path fill="none" stroke="black" d="M1000.28,-73.36C986.3,-63.02 968.94,-50.18 954.6,-39.58"/>
<polygon fill="#3c7326" stroke="black" points="956.68,-36.76 946.56,-33.63 952.52,-42.39 956.68,-36.76"/>
</g>
<!-- mlgw_bns_principal_component_analysis&#45;&gt;mlgw_bns_model -->
<g id="edge26" class="edge">
<title>mlgw_bns_principal_component_analysis&#45;&gt;mlgw_bns_model</title><style>.edge>path:hover{stroke-width:8}</style>
<path fill="none" stroke="black" d="M926.78,-222.25C926.78,-214.39 926.78,-205.29 926.78,-196.88"/>
<polygon fill="#5cb03a" stroke="black" points="930.28,-196.74 926.78,-186.74 923.28,-196.74 930.28,-196.74"/>
</g>
<!-- mlgw_bns_taylorf2 -->
<g id="node13" class="node">
<title>mlgw_bns_taylorf2</title><style>.edge>path:hover{stroke-width:8}</style>
<ellipse fill="#60b83d" stroke="black" cx="1131.78" cy="-400.49" rx="48.58" ry="21.43"/>
<text text-anchor="middle" x="1131.78" y="-403.49" font-family="Helvetica,sans-Serif" font-size="10.00" fill="#000000">mlgw_bns.</text>
<text text-anchor="middle" x="1131.78" y="-392.49" font-family="Helvetica,sans-Serif" font-size="10.00" fill="#000000">taylorf2</text>
</g>
<!-- mlgw_bns_taylorf2&#45;&gt;mlgw_bns_dataset_generation -->
<g id="edge27" class="edge">
<title>mlgw_bns_taylorf2&#45;&gt;mlgw_bns_dataset_generation</title><style>.edge>path:hover{stroke-width:8}</style>
<path fill="none" stroke="black" d="M1134.19,-379.01C1135.11,-371.15 1136.19,-362.01 1137.2,-353.42"/>
<polygon fill="#60b83d" stroke="black" points="1140.69,-353.68 1138.39,-343.34 1133.74,-352.86 1140.69,-353.68"/>
</g>
<!-- numba -->
<g id="node14" class="node">
<title>numba</title><style>.edge>path:hover{stroke-width:8}</style>
<ellipse fill="#31c446" stroke="black" cx="1102.78" cy="-547.71" rx="29.37" ry="18"/>
<text text-anchor="middle" x="1102.78" y="-545.21" font-family="Helvetica,sans-Serif" font-size="10.00" fill="#000000">numba</text>
</g>
<!-- numba&#45;&gt;mlgw_bns_model -->
<g id="edge28" class="edge">
<title>numba&#45;&gt;mlgw_bns_model</title><style>.edge>path:hover{stroke-width:8}</style>
<path fill="none" stroke="black" d="M1077.9,-537.86C1053.74,-527.5 1020.22,-507.7 1016.78,-476.71"/>
<path fill="none" stroke="black" d="M1016.78,-474.71C1013.19,-442.36 1007.31,-432.62 1016.78,-401.49"/>
</g>
<!-- numba&#45;&gt;mlgw_bns_taylorf2 -->
<g id="edge29" class="edge">
<title>numba&#45;&gt;mlgw_bns_taylorf2</title><style>.edge>path:hover{stroke-width:8}</style>
<path fill="none" stroke="black" d="M1016.78,-474.71C1014.82,-457.07 1054.59,-434.99 1087.88,-419.71"/>
<polygon fill="#31c446" stroke="black" points="1089.37,-422.88 1097.06,-415.59 1086.51,-416.49 1089.37,-422.88"/>
</g>
<!-- numpy -->
<g id="node15" class="node">
<title>numpy</title><style>.edge>path:hover{stroke-width:8}</style>
<ellipse fill="#06ef8b" stroke="black" cx="1199.78" cy="-691.71" rx="29.37" ry="18"/>
<text text-anchor="middle" x="1199.78" y="-689.21" font-family="Helvetica,sans-Serif" font-size="10.00" fill="#000000">numpy</text>
</g>
<!-- numpy&#45;&gt;mlgw_bns_data_management -->
<g id="edge30" class="edge">
<title>numpy&#45;&gt;mlgw_bns_data_management</title><style>.edge>path:hover{stroke-width:8}</style>
<path fill="none" stroke="black" d="M656.78,-474.71C626.9,-460.17 667.73,-437.64 706.88,-421.41"/>
<polygon fill="#06ef8b" stroke="black" points="708.26,-424.63 716.22,-417.64 705.64,-418.14 708.26,-424.63"/>
</g>
<!-- numpy&#45;&gt;mlgw_bns_dataset_generation -->
<g id="edge31" class="edge">
<title>numpy&#45;&gt;mlgw_bns_dataset_generation</title><style>.edge>path:hover{stroke-width:8}</style>
<path fill="none" stroke="black" d="M1208.78,-474.71C1201.59,-442.97 1229.2,-426.82 1208.78,-401.49"/>
<path fill="none" stroke="black" d="M1208.78,-399.49C1195.23,-382.69 1179.23,-364.63 1166.15,-350.28"/>
<polygon fill="#06ef8b" stroke="black" points="1168.55,-347.72 1159.22,-342.72 1163.4,-352.46 1168.55,-347.72"/>
</g>
<!-- numpy&#45;&gt;mlgw_bns_downsampling_interpolation -->
<g id="edge32" class="edge">
<title>numpy&#45;&gt;mlgw_bns_downsampling_interpolation</title><style>.edge>path:hover{stroke-width:8}</style>
<path fill="none" stroke="black" d="M1208.78,-618.71C1177.77,-529.34 1355.32,-626.06 1409.78,-548.71"/>
<path fill="none" stroke="black" d="M1409.78,-546.71C1440.1,-503.64 1341.43,-530.54 1303.78,-493.71 1246.62,-437.79 1257.56,-402.29 1246.78,-323.07"/>
</g>
<!-- numpy&#45;&gt;mlgw_bns_hyperparameter_optimization -->
<g id="edge33" class="edge">
<title>numpy&#45;&gt;mlgw_bns_hyperparameter_optimization</title><style>.edge>path:hover{stroke-width:8}</style>
<path fill="none" stroke="black" d="M1206.14,-673.86C1210.62,-659.4 1214.84,-638.19 1208.78,-620.71"/>
<path fill="none" stroke="black" d="M1208.78,-618.71C1189.02,-561.76 1001.19,-580.57 942.78,-565.71 813.76,-532.88 776.43,-535.05 656.78,-476.71"/>
<path fill="none" stroke="black" d="M656.78,-474.71C522.53,-422.5 108.37,-527.64 10.78,-421.71 -24.8,-383.09 39.24,-360.77 75.78,-323.07"/>
<path fill="none" stroke="black" d="M75.78,-321.07C84.03,-311.91 84.83,-308.14 94.78,-300.85 141.32,-266.77 168.32,-282.59 211.78,-244.64"/>
<path fill="none" stroke="black" d="M211.78,-242.64C290.66,-173.74 339.39,-210.42 435.78,-169.43"/>
<path fill="none" stroke="black" d="M435.78,-167.43C512.67,-134.72 605.53,-116.14 675.98,-105.88"/>
<polygon fill="#06ef8b" stroke="black" points="676.8,-109.3 686.2,-104.43 675.81,-102.37 676.8,-109.3"/>
</g>
<!-- numpy&#45;&gt;mlgw_bns_model -->
<g id="edge34" class="edge">
<title>numpy&#45;&gt;mlgw_bns_model</title><style>.edge>path:hover{stroke-width:8}</style>
<path fill="none" stroke="black" d="M528.78,-399.49C489.5,-378.27 524.87,-339.17 547.78,-300.85 568.07,-266.9 588.11,-271.9 616.78,-244.64"/>
</g>
<!-- numpy&#45;&gt;mlgw_bns_model_validation -->
<g id="edge35" class="edge">
<title>numpy&#45;&gt;mlgw_bns_model_validation</title><style>.edge>path:hover{stroke-width:8}</style>
<path fill="none" stroke="black" d="M1409.78,-546.71C1459.76,-477.76 1509.4,-482.78 1534.78,-401.49"/>
</g>
<!-- numpy&#45;&gt;mlgw_bns_principal_component_analysis -->
<g id="edge36" class="edge">
<title>numpy&#45;&gt;mlgw_bns_principal_component_analysis</title><style>.edge>path:hover{stroke-width:8}</style>
<path fill="none" stroke="black" d="M656.78,-474.71C617.89,-455.79 644.28,-408.91 675.78,-379.28 762.03,-298.14 861.9,-432.49 939.78,-343.28 956.03,-324.66 950.05,-296.04 941.62,-274.41"/>
<polygon fill="#06ef8b" stroke="black" points="944.77,-272.87 937.64,-265.03 938.32,-275.6 944.77,-272.87"/>
</g>
<!-- numpy&#45;&gt;mlgw_bns_taylorf2 -->
<g id="edge37" class="edge">
<title>numpy&#45;&gt;mlgw_bns_taylorf2</title><style>.edge>path:hover{stroke-width:8}</style>
<path fill="none" stroke="black" d="M1208.78,-618.71C1188.22,-559.03 1223.57,-538.06 1208.78,-476.71"/>
<path fill="none" stroke="black" d="M1208.78,-474.71C1203.87,-453.06 1186.57,-435.59 1169.61,-423.15"/>
<polygon fill="#06ef8b" stroke="black" points="1171.58,-420.26 1161.36,-417.45 1167.6,-426.02 1171.58,-420.26"/>
</g>
<!-- scipy -->
<g id="node22" class="node">
<title>scipy</title><style>.edge>path:hover{stroke-width:8}</style>
<ellipse fill="#4505e5" stroke="black" cx="1301.78" cy="-619.71" rx="27" ry="18"/>
<text text-anchor="middle" x="1301.78" y="-617.21" font-family="Helvetica,sans-Serif" font-size="10.00" fill="#ffffff">scipy</text>
</g>
<!-- numpy&#45;&gt;scipy -->
<g id="edge38" class="edge">
<title>numpy&#45;&gt;scipy</title><style>.edge>path:hover{stroke-width:8}</style>
<path fill="none" stroke="black" d="M1218.96,-677.54C1234.79,-666.68 1257.41,-651.15 1275.02,-639.07"/>
<polygon fill="#06ef8b" stroke="black" points="1277.44,-641.65 1283.7,-633.11 1273.48,-635.88 1277.44,-641.65"/>
</g>
<!-- sklearn -->
<g id="node26" class="node">
<title>sklearn</title><style>.edge>path:hover{stroke-width:8}</style>
<ellipse fill="#9a31c4" stroke="black" cx="211.78" cy="-322.07" rx="31.4" ry="18"/>
<text text-anchor="middle" x="211.78" y="-319.57" font-family="Helvetica,sans-Serif" font-size="10.00" fill="#ffffff">sklearn</text>
</g>
<!-- numpy&#45;&gt;sklearn -->
<g id="edge39" class="edge">
<title>numpy&#45;&gt;sklearn</title><style>.edge>path:hover{stroke-width:8}</style>
<path fill="none" stroke="black" d="M656.78,-474.71C608.33,-451.15 591.16,-453.63 547.78,-421.71 537.85,-414.4 539.62,-407.35 528.78,-401.49"/>
<path fill="none" stroke="black" d="M528.78,-399.49C417.49,-339.36 368.86,-385.92 249.78,-343.28 247.07,-342.31 244.32,-341.18 241.6,-339.95"/>
<polygon fill="#06ef8b" stroke="black" points="243.1,-336.79 232.58,-335.52 240.02,-343.07 243.1,-336.79"/>
</g>
<!-- numpy_random -->
<g id="node16" class="node">
<title>numpy_random</title><style>.edge>path:hover{stroke-width:8}</style>
<ellipse fill="#24d087" stroke="black" cx="1227.78" cy="-763.71" rx="52.28" ry="18"/>
<text text-anchor="middle" x="1227.78" y="-761.21" font-family="Helvetica,sans-Serif" font-size="10.00" fill="#000000">numpy.random</text>
</g>
<!-- numpy_random&#45;&gt;mlgw_bns_dataset_generation -->
<g id="edge40" class="edge">
<title>numpy_random&#45;&gt;mlgw_bns_dataset_generation</title><style>.edge>path:hover{stroke-width:8}</style>
<path fill="none" stroke="black" d="M1235.73,-745.74C1242.06,-731.74 1250.82,-711.24 1256.78,-692.71"/>
<path fill="none" stroke="black" d="M1256.78,-690.71C1276.69,-628.68 1249.67,-452.21 1208.78,-401.49"/>
</g>
<!-- numpy_random&#45;&gt;numpy -->
<g id="edge41" class="edge">
<title>numpy_random&#45;&gt;numpy</title><style>.edge>path:hover{stroke-width:8}</style>
<path fill="none" stroke="black" d="M1221,-745.76C1217.76,-737.68 1213.82,-727.83 1210.22,-718.82"/>
<polygon fill="#24d087" stroke="black" points="1213.45,-717.48 1206.49,-709.49 1206.96,-720.08 1213.45,-717.48"/>
</g>
<!-- numpy_random&#45;&gt;scipy -->
<g id="edge42" class="edge">
<title>numpy_random&#45;&gt;scipy</title><style>.edge>path:hover{stroke-width:8}</style>
<path fill="none" stroke="black" d="M1256.78,-690.71C1262.23,-673.72 1272.89,-656.83 1282.47,-643.9"/>
<polygon fill="#24d087" stroke="black" points="1285.52,-645.68 1288.85,-635.62 1279.97,-641.41 1285.52,-645.68"/>
</g>
<!-- optuna -->
<g id="node17" class="node">
<title>optuna</title><style>.edge>path:hover{stroke-width:8}</style>
<ellipse fill="#24d0d0" stroke="black" cx="132.78" cy="-322.07" rx="29.37" ry="18"/>
<text text-anchor="middle" x="132.78" y="-319.57" font-family="Helvetica,sans-Serif" font-size="10.00" fill="#000000">optuna</text>
</g>
<!-- optuna&#45;&gt;mlgw_bns_hyperparameter_optimization -->
<g id="edge43" class="edge">
<title>optuna&#45;&gt;mlgw_bns_hyperparameter_optimization</title><style>.edge>path:hover{stroke-width:8}</style>
<path fill="none" stroke="black" d="M147.19,-306.22C162.71,-290.47 188.32,-265.07 211.78,-244.64"/>
</g>
<!-- optuna&#45;&gt;mlgw_bns_model -->
<g id="edge44" class="edge">
<title>optuna&#45;&gt;mlgw_bns_model</title><style>.edge>path:hover{stroke-width:8}</style>
<path fill="none" stroke="black" d="M153.32,-308.97C159.13,-305.95 165.57,-302.97 171.78,-300.85 356.03,-237.93 410.92,-255.57 602.78,-222.43 694.21,-206.63 800.37,-189.49 865.56,-179.11"/>
<polygon fill="#24d0d0" stroke="black" points="866.34,-182.53 875.66,-177.5 865.24,-175.61 866.34,-182.53"/>
</g>
<!-- optuna_visualization -->
<g id="node18" class="node">
<title>optuna_visualization</title><style>.edge>path:hover{stroke-width:8}</style>
<ellipse fill="#31c4c4" stroke="black" cx="75.78" cy="-400.49" rx="55.72" ry="21.43"/>
<text text-anchor="middle" x="75.78" y="-403.49" font-family="Helvetica,sans-Serif" font-size="10.00" fill="#000000">optuna.</text>
<text text-anchor="middle" x="75.78" y="-392.49" font-family="Helvetica,sans-Serif" font-size="10.00" fill="#000000">visualization</text>
</g>
<!-- optuna_visualization&#45;&gt;mlgw_bns_hyperparameter_optimization -->
<g id="edge45" class="edge">
<title>optuna_visualization&#45;&gt;mlgw_bns_hyperparameter_optimization</title><style>.edge>path:hover{stroke-width:8}</style>
<path fill="none" stroke="black" d="M68.91,-379.41C64.41,-362.1 61.65,-337.64 75.78,-323.07"/>
</g>
<!-- optuna_visualization&#45;&gt;optuna -->
<g id="edge46" class="edge">
<title>optuna_visualization&#45;&gt;optuna</title><style>.edge>path:hover{stroke-width:8}</style>
<path fill="none" stroke="black" d="M90.45,-379.81C97.95,-369.76 107.13,-357.45 115.02,-346.87"/>
<polygon fill="#31c4c4" stroke="black" points="117.84,-348.94 121.02,-338.83 112.23,-344.76 117.84,-348.94"/>
</g>
<!-- pkg_resources&#45;&gt;mlgw_bns_model -->
<g id="edge47" class="edge">
<title>pkg_resources&#45;&gt;mlgw_bns_model</title><style>.edge>path:hover{stroke-width:8}</style>
<path fill="none" stroke="black" d="M844.66,-308.88C836.52,-306.15 827.87,-303.33 819.78,-300.85 730.27,-273.41 548.94,-309.16 616.78,-244.64"/>
</g>
<!-- pycbc -->
<g id="node20" class="node">
<title>pycbc</title><style>.edge>path:hover{stroke-width:8}</style>
<ellipse fill="#3349cc" stroke="black" cx="1401.78" cy="-243.64" rx="27" ry="18"/>
<text text-anchor="middle" x="1401.78" y="-241.14" font-family="Helvetica,sans-Serif" font-size="10.00" fill="#ffffff">pycbc</text>
</g>
<!-- pycbc&#45;&gt;mlgw_bns_model_validation -->
<g id="edge48" class="edge">
<title>pycbc&#45;&gt;mlgw_bns_model_validation</title><style>.edge>path:hover{stroke-width:8}</style>
<path fill="none" stroke="black" d="M1421.01,-230.89C1444.14,-215.44 1477.42,-188.08 1456.78,-169.43"/>
</g>
<!-- pycbc_psd -->
<g id="node21" class="node">
<title>pycbc_psd</title><style>.edge>path:hover{stroke-width:8}</style>
<ellipse fill="#3d4eb8" stroke="black" cx="1522.78" cy="-243.64" rx="38.03" ry="18"/>
<text text-anchor="middle" x="1522.78" y="-241.14" font-family="Helvetica,sans-Serif" font-size="10.00" fill="#ffffff">pycbc.psd</text>
</g>
<!-- pycbc_psd&#45;&gt;mlgw_bns_model_validation -->
<g id="edge49" class="edge">
<title>pycbc_psd&#45;&gt;mlgw_bns_model_validation</title><style>.edge>path:hover{stroke-width:8}</style>
<path fill="none" stroke="black" d="M1509.98,-226.64C1497.28,-211.19 1476.84,-187.56 1456.78,-169.43"/>
</g>
<!-- scipy&#45;&gt;mlgw_bns_downsampling_interpolation -->
<g id="edge50" class="edge">
<title>scipy&#45;&gt;mlgw_bns_downsampling_interpolation</title><style>.edge>path:hover{stroke-width:8}</style>
<path fill="none" stroke="black" d="M1326.76,-612.52C1428.59,-586.1 1801.86,-477.06 1692.78,-323.07"/>
<path fill="none" stroke="black" d="M1692.78,-321.07C1692.41,-320.64 1466.82,-282.14 1336.66,-259.95"/>
<polygon fill="#4505e5" stroke="black" points="1337.13,-256.48 1326.69,-258.25 1335.96,-263.38 1337.13,-256.48"/>
</g>
<!-- scipy&#45;&gt;mlgw_bns_model_validation -->
<g id="edge51" class="edge">
<title>scipy&#45;&gt;mlgw_bns_model_validation</title><style>.edge>path:hover{stroke-width:8}</style>
<path fill="none" stroke="black" d="M1692.78,-321.07C1663.65,-287.23 1704.56,-254.76 1673.78,-222.43 1605.32,-150.52 1531.29,-235.03 1456.78,-169.43"/>
</g>
<!-- scipy&#45;&gt;numba -->
<g id="edge52" class="edge">
<title>scipy&#45;&gt;numba</title><style>.edge>path:hover{stroke-width:8}</style>
<path fill="none" stroke="black" d="M1278.17,-610.4C1243.24,-598.11 1177.59,-575.02 1137.27,-560.84"/>
<polygon fill="#4505e5" stroke="black" points="1138.2,-557.46 1127.6,-557.44 1135.87,-564.06 1138.2,-557.46"/>
</g>
<!-- scipy_integrate -->
<g id="node23" class="node">
<title>scipy_integrate</title><style>.edge>path:hover{stroke-width:8}</style>
<ellipse fill="#6a4cb3" stroke="black" cx="1621.78" cy="-243.64" rx="43.27" ry="21.43"/>
<text text-anchor="middle" x="1621.78" y="-246.64" font-family="Helvetica,sans-Serif" font-size="10.00" fill="#ffffff">scipy.</text>
<text text-anchor="middle" x="1621.78" y="-235.64" font-family="Helvetica,sans-Serif" font-size="10.00" fill="#ffffff">integrate</text>
</g>
<!-- scipy_integrate&#45;&gt;mlgw_bns_model_validation -->
<g id="edge53" class="edge">
<title>scipy_integrate&#45;&gt;mlgw_bns_model_validation</title><style>.edge>path:hover{stroke-width:8}</style>
<path fill="none" stroke="black" d="M1589.17,-229.46C1544.13,-211.06 1467.21,-178.86 1456.78,-169.43"/>
</g>
<!-- scipy_interpolate -->
<g id="node24" class="node">
<title>scipy_interpolate</title><style>.edge>path:hover{stroke-width:8}</style>
<ellipse fill="#6a4cb3" stroke="black" cx="1323.78" cy="-400.49" rx="49.49" ry="21.43"/>
<text text-anchor="middle" x="1323.78" y="-403.49" font-family="Helvetica,sans-Serif" font-size="10.00" fill="#ffffff">scipy.</text>
<text text-anchor="middle" x="1323.78" y="-392.49" font-family="Helvetica,sans-Serif" font-size="10.00" fill="#ffffff">interpolate</text>
</g>
<!-- scipy_interpolate&#45;&gt;mlgw_bns_downsampling_interpolation -->
<g id="edge54" class="edge">
<title>scipy_interpolate&#45;&gt;mlgw_bns_downsampling_interpolation</title><style>.edge>path:hover{stroke-width:8}</style>
<path fill="none" stroke="black" d="M1293.71,-383.29C1273.68,-370.18 1250.38,-349.57 1246.78,-323.07"/>
</g>
<!-- scipy_optimize -->
<g id="node25" class="node">
<title>scipy_optimize</title><style>.edge>path:hover{stroke-width:8}</style>
<ellipse fill="#6a4cb3" stroke="black" cx="1771.78" cy="-243.64" rx="50.75" ry="18"/>
<text text-anchor="middle" x="1771.78" y="-241.14" font-family="Helvetica,sans-Serif" font-size="10.00" fill="#ffffff">scipy.optimize</text>
</g>
<!-- scipy_optimize&#45;&gt;mlgw_bns_model_validation -->
<g id="edge55" class="edge">
<title>scipy_optimize&#45;&gt;mlgw_bns_model_validation</title><style>.edge>path:hover{stroke-width:8}</style>
<path fill="none" stroke="black" d="M1735.85,-230.82C1726.44,-227.9 1716.27,-224.9 1706.78,-222.43 1596.87,-193.75 1541.04,-245.58 1456.78,-169.43"/>
</g>
<!-- sklearn&#45;&gt;mlgw_bns_hyperparameter_optimization -->
<g id="edge56" class="edge">
<title>sklearn&#45;&gt;mlgw_bns_hyperparameter_optimization</title><style>.edge>path:hover{stroke-width:8}</style>
<path fill="none" stroke="black" d="M205.52,-304.41C200.04,-286.61 195.27,-259.02 211.78,-244.64"/>
</g>
<!-- sklearn&#45;&gt;mlgw_bns_model -->
<g id="edge57" class="edge">
<title>sklearn&#45;&gt;mlgw_bns_model</title><style>.edge>path:hover{stroke-width:8}</style>
<path fill="none" stroke="black" d="M239.44,-313.3C254.29,-309.28 272.95,-304.47 289.78,-300.85 433.94,-269.84 509.92,-346.26 616.78,-244.64"/>
<path fill="none" stroke="black" d="M616.78,-242.64C651.65,-209.47 782.41,-187.56 862.54,-176.93"/>
<polygon fill="#9a31c4" stroke="black" points="863.07,-180.39 872.53,-175.63 862.17,-173.45 863.07,-180.39"/>
</g>
<!-- sklearn_neural_network -->
<g id="node27" class="node">
<title>sklearn_neural_network</title><style>.edge>path:hover{stroke-width:8}</style>
<ellipse fill="#9f47c2" stroke="black" cx="435.78" cy="-322.07" rx="65.11" ry="21.43"/>
<text text-anchor="middle" x="435.78" y="-325.07" font-family="Helvetica,sans-Serif" font-size="10.00" fill="#ffffff">sklearn.</text>
<text text-anchor="middle" x="435.78" y="-314.07" font-family="Helvetica,sans-Serif" font-size="10.00" fill="#ffffff">neural_network</text>
</g>
<!-- sklearn_neural_network&#45;&gt;mlgw_bns_hyperparameter_optimization -->
<g id="edge58" class="edge">
<title>sklearn_neural_network&#45;&gt;mlgw_bns_hyperparameter_optimization</title><style>.edge>path:hover{stroke-width:8}</style>
<path fill="none" stroke="black" d="M432.51,-300.77C430.75,-285.07 429.98,-262.99 435.78,-244.64"/>
</g>
<!-- sklearn_neural_network&#45;&gt;mlgw_bns_model -->
<g id="edge59" class="edge">
<title>sklearn_neural_network&#45;&gt;mlgw_bns_model</title><style>.edge>path:hover{stroke-width:8}</style>
<path fill="none" stroke="black" d="M479.97,-306.46C526.67,-290.33 596.32,-264.09 616.78,-244.64"/>
</g>
<!-- sklearn_preprocessing -->
<g id="node28" class="node">
<title>sklearn_preprocessing</title><style>.edge>path:hover{stroke-width:8}</style>
<ellipse fill="#9a53b6" stroke="black" cx="616.78" cy="-322.07" rx="60.21" ry="21.43"/>
<text text-anchor="middle" x="616.78" y="-325.07" font-family="Helvetica,sans-Serif" font-size="10.00" fill="#ffffff">sklearn.</text>
<text text-anchor="middle" x="616.78" y="-314.07" font-family="Helvetica,sans-Serif" font-size="10.00" fill="#ffffff">preprocessing</text>
</g>
<!-- sklearn_preprocessing&#45;&gt;mlgw_bns_model -->
<g id="edge60" class="edge">
<title>sklearn_preprocessing&#45;&gt;mlgw_bns_model</title><style>.edge>path:hover{stroke-width:8}</style>
<path fill="none" stroke="black" d="M609.63,-300.7C604.94,-283.2 602.07,-258.63 616.78,-244.64"/>
</g>
<!-- sortedcontainers -->
<g id="node29" class="node">
<title>sortedcontainers</title><style>.edge>path:hover{stroke-width:8}</style>
<ellipse fill="#b653a8" stroke="black" cx="1448.78" cy="-400.49" rx="57.88" ry="18"/>
<text text-anchor="middle" x="1448.78" y="-397.99" font-family="Helvetica,sans-Serif" font-size="10.00" fill="#ffffff">sortedcontainers</text>
</g>
<!-- sortedcontainers&#45;&gt;mlgw_bns_downsampling_interpolation -->
<g id="edge61" class="edge">
<title>sortedcontainers&#45;&gt;mlgw_bns_downsampling_interpolation</title><style>.edge>path:hover{stroke-width:8}</style>
<path fill="none" stroke="black" d="M1410.58,-386.94C1352.35,-367.55 1247.94,-331.63 1246.78,-323.07"/>
</g>
<!-- tqdm -->
<g id="node30" class="node">
<title>tqdm</title><style>.edge>path:hover{stroke-width:8}</style>
<ellipse fill="#c2477c" stroke="black" cx="1339.78" cy="-475.71" rx="27" ry="18"/>
<text text-anchor="middle" x="1339.78" y="-473.21" font-family="Helvetica,sans-Serif" font-size="10.00" fill="#ffffff">tqdm</text>
</g>
<!-- tqdm&#45;&gt;mlgw_bns_dataset_generation -->
<g id="edge62" class="edge">
<title>tqdm&#45;&gt;mlgw_bns_dataset_generation</title><style>.edge>path:hover{stroke-width:8}</style>
<path fill="none" stroke="black" d="M1315.55,-467.41C1286.08,-457.31 1236.82,-436.28 1208.78,-401.49"/>
</g>
<!-- tqdm&#45;&gt;mlgw_bns_model_validation -->
<g id="edge63" class="edge">
<title>tqdm&#45;&gt;mlgw_bns_model_validation</title><style>.edge>path:hover{stroke-width:8}</style>
<path fill="none" stroke="black" d="M1365.58,-470.22C1416.75,-460.6 1526.83,-436.03 1534.78,-401.49"/>
<path fill="none" stroke="black" d="M1534.78,-399.49C1549.42,-335.82 1495.38,-327.18 1475.78,-264.85 1462.8,-223.6 1488.86,-198.42 1456.78,-169.43"/>
</g>
</g>
</svg>
